<?xml version="1.0" standalone="no"?>
<!DOCTYPE svg PUBLIC "-//W3C//DTD SVG 1.1//EN" "http://www.w3.org/Graphics/SVG/1.1/DTD/svg11.dtd" >
<svg xmlns="http://www.w3.org/2000/svg">
<metadata>Generated by IcoMoon</metadata>
<defs>
<font id="icomoon" horiz-adv-x="512">
<font-face units-per-em="512" ascent="480" descent="-32" />
<missing-glyph horiz-adv-x="512" />
<glyph unicode="&#x20;" horiz-adv-x="256" d="" />
<glyph unicode="&#xe600;" glyph-name="creative-commons-attribution" d="M322.13 291.247c0 8.767-7.117 15.869-15.87 15.869h-100.525c-8.763 0-15.869-7.102-15.869-15.869v-100.529h28.038v-119.038h76.183v119.038h28.043v100.529zM290.383 354.733c0-18.992-15.396-34.387-34.387-34.387s-34.387 15.395-34.387 34.387c0 18.992 15.395 34.387 34.387 34.387s34.387-15.395 34.387-34.387zM255.688 476.156c-68.080 0-125.705-23.752-172.861-71.264-48.4-49.154-72.587-107.315-72.587-174.492 0-67.169 24.187-124.933 72.587-173.262 48.386-48.329 106.012-72.494 172.861-72.494 67.664 0 126.313 24.36 175.94 73.108 46.747 46.274 70.132 103.829 70.132 172.648s-23.79 126.98-71.361 174.493c-47.579 47.511-105.817 71.264-174.71 71.264zM256.303 431.93c55.776 0 103.139-19.658 142.107-58.987 39.367-38.909 59.047-86.421 59.047-142.542 0-56.52-19.267-103.424-57.824-140.698-40.604-40.139-88.378-60.209-143.33-60.209-54.963 0-102.328 19.86-142.107 59.594s-59.669 86.834-59.669 141.313c0 54.479 20.096 101.991 60.288 142.542 38.553 39.329 85.708 58.987 141.488 58.987z" />
<glyph unicode="&#xe601;" glyph-name="creative-commons-noderivs" d="M255.683 476.158c-68.073 0-125.699-23.745-172.856-71.264-48.401-49.154-72.588-107.308-72.588-174.494 0-67.169 24.187-124.934 72.588-173.249 48.386-48.344 106.012-72.51 172.856-72.51 67.668 0 126.317 24.375 175.945 73.109 46.747 46.29 70.132 103.844 70.132 172.649 0 68.819-23.79 126.99-71.362 174.494-47.579 47.519-105.817 71.264-174.715 71.264zM256.301 431.938c55.777 0 103.139-19.665 142.109-58.994 39.368-38.911 59.047-86.415 59.047-142.544 0-56.52-19.267-103.424-57.825-140.699-40.604-40.14-88.379-60.195-143.332-60.195-54.959 0-102.325 19.86-142.105 59.595s-59.669 86.834-59.669 141.299c0 54.494 20.096 101.999 60.288 142.544 38.553 39.329 85.709 58.994 141.486 58.994zM348.851 288.644h-178.641v-42.315h178.641v42.315zM348.851 209.671h-178.641v-42.315h178.641v42.315z" />
<glyph unicode="&#xe602;" glyph-name="creative-commons-noncommercial-eu" d="M430.389 404.895c-47.58 47.52-105.81 71.265-174.706 71.265-68.085 0-125.7-23.745-172.86-71.265-48.404-49.155-72.585-107.31-72.585-174.495 0-67.17 24.18-124.935 72.585-173.25 48.39-48.345 106.006-72.51 172.86-72.51 67.665 0 126.316 24.375 175.935 73.11 46.755 46.289 70.141 103.845 70.141 172.65 0 68.82-23.791 126.989-71.37 174.495zM399.625 89.7c-40.605-40.141-88.38-60.195-143.325-60.195-54.959 0-102.33 19.86-142.11 59.594s-59.67 86.835-59.67 141.301c0 23.040 3.637 44.82 10.829 65.355l65.122-28.822h-4.695v-29.204h23.048c0-4.125-0.412-8.235-0.412-12.345v-7.006h-22.636v-29.204h26.745c3.705-21.81 11.933-39.495 23.040-53.49 23.040-30.45 60.067-46.906 100.388-46.906 26.34 0 50.19 7.815 64.185 15.646l-9.885 45.66c-8.64-4.531-27.96-10.695-46.889-10.695-20.58 0-39.907 6.164-53.078 20.985-6.173 6.99-10.695 16.455-13.567 28.8h89.445l127.095-56.257c-8.805-15.599-19.98-30.015-33.63-43.214zM239.785 218.377l-0.54 0.413 0.93-0.413h-0.39zM316.3 237.727h3.675v29.205h-69.66l-28.297 12.525c2.438 5.475 5.317 10.373 8.678 14.205 12.758 15.659 30.855 22.23 50.611 22.23 18.105 0 34.964-5.34 45.66-9.869l11.52 46.905c-14.82 6.57-36.615 12.329-61.711 12.329-38.669 0-71.588-15.63-95.040-41.954-5.205-6.015-9.72-12.765-13.815-19.905l-80.82 35.767c7.83 11.745 17.040 23.024 27.705 33.779 38.565 39.33 85.71 58.996 141.495 58.996 55.77 0 103.14-19.666 142.11-58.996 39.36-38.91 59.040-86.414 59.040-142.544 0-18.495-2.099-35.94-6.24-52.38l-134.91 59.708z" />
<glyph unicode="&#xe603;" glyph-name="creative-commons-noncommercial-us" d="M255.685 476.16c68.895 0 127.14-23.752 174.72-71.265 47.565-47.52 71.356-105.682 71.356-174.495s-23.385-126.368-70.125-172.65c-49.635-48.743-108.285-73.11-175.951-73.11-66.84 0-124.47 24.158-172.86 72.495-48.397 48.331-72.585 106.096-72.585 173.266s24.188 125.34 72.585 174.495c47.16 47.512 104.79 71.265 172.86 71.265zM65.53 296.415c-7.335-20.737-11.002-42.742-11.002-66.015 0-54.481 19.889-101.581 59.67-141.308 39.788-39.735 87.142-59.603 142.103-59.603s102.736 20.063 143.34 60.211c13.589 13.139 24.779 27.465 33.57 42.997l-92.64 41.257c-6.286-31.17-34.065-52.23-67.65-54.705v-37.882h-28.208v37.882c-27.585 0.315-54.232 11.587-74.602 29.43l33.855 34.132c16.297-15.344 32.595-22.238 54.855-22.238 14.416 0 30.405 5.64 30.405 24.428 0 6.659-2.579 11.288-6.644 14.767l-52.605 23.423c-14.43 6.428-26.655 11.873-38.925 17.326l-125.519 55.898zM256.3 431.933c-55.77 0-102.93-19.664-141.48-58.995-10.499-10.583-19.62-21.645-27.374-33.188l93.945-41.827c8.49 26.055 33.255 41.858 63.322 43.627v37.883h28.208v-37.883c19.44-0.937 40.755-6.263 61.755-22.545l-32.279-33.188c-11.91 8.453-26.956 14.407-42.015 14.407-12.218 0-29.46-3.764-29.46-19.102 0-2.34 0.78-4.403 2.205-6.24l52.695-23.468c13.605-6.053 26.595-11.835 39.464-17.565l125.925-56.070c4.171 16.5 6.255 34.043 6.255 52.621 0 56.122-19.68 103.635-59.055 142.537-38.97 39.33-86.325 58.995-142.11 58.995z" />
<glyph unicode="&#xe604;" glyph-name="creative-commons-remix" d="M255.677 476.152c-68.067 0-125.696-23.744-172.855-71.263-48.389-49.154-72.582-107.307-72.582-174.49 0-67.168 24.194-124.916 72.582-173.245 48.388-48.344 106.017-72.508 172.855-72.508 67.671 0 126.327 24.374 175.96 73.108 46.739 46.289 70.123 103.842 70.123 172.645 0 68.817-23.789 126.987-71.353 174.49-47.579 47.519-105.829 71.263-174.73 71.263zM256.293 431.934c55.791 0 103.153-19.665 142.121-58.993 39.373-38.909 59.053-86.412 59.053-142.541 0-56.519-19.274-103.422-57.824-140.696-40.604-40.139-88.385-60.209-143.351-60.209-54.958 0-102.311 19.875-142.090 59.609-39.779 39.718-59.669 86.832-59.669 141.296 0 54.479 20.085 101.997 60.283 142.54 38.549 39.329 85.708 58.994 141.476 58.994zM416.727 226.050l-48.928 20.339v60.944l-150.31 62.578-67.003-29.429v-69.703l0.705-0.3-59.098-24.6v-63.163l63.163-27.075 63.5 26.279 4.29-1.711 131.524-54.238 2.88 1.2 64.077 27.359v69.598l-4.8 1.92zM346.889 145.607l-0.6 0.24v-0.375l-112.677 46.694v44.428l112.677-46.049v-1.44l0.6-0.255v-43.243zM354.479 202.365l-35.721 15.3 38.466 16.485 36.688-15.255-39.433-16.53zM406.168 164.851l-43.918-18.913v43.018l43.918 18.48v-42.584z" />
<glyph unicode="&#xe605;" glyph-name="creative-commons-share" d="M255.677 476.156c-68.067 0-125.696-23.745-172.855-71.263-48.389-49.154-72.582-107.307-72.582-174.49 0-67.176 24.194-124.924 72.582-173.253 48.388-48.344 106.017-72.508 172.855-72.508 67.671 0 126.327 24.374 175.96 73.108 46.739 46.289 70.123 103.842 70.123 172.653 0 68.817-23.789 126.986-71.353 174.49-47.579 47.519-105.829 71.263-174.73 71.263zM256.293 431.938c55.791 0 103.153-19.665 142.121-58.993 39.373-38.909 59.053-86.412 59.053-142.541 0-56.526-19.274-103.43-57.824-140.704-40.604-40.139-88.385-60.209-143.351-60.209-54.958 0-102.311 19.875-142.090 59.609-39.779 39.719-59.669 86.832-59.669 141.303 0 54.478 20.085 101.996 60.283 142.54 38.549 39.329 85.708 58.994 141.476 58.994zM356.654 300.811h-53.766v53.519c0 7.417-6.015 13.439-13.44 13.439h-134.149c-0.405 0.014-0.81 0.014-1.2 0-6.96-0.63-12.27-6.465-12.24-13.439v-180.963c0-7.425 6.015-13.44 13.44-13.44h53.758v-53.518c0-7.425 6.015-13.44 13.44-13.44h134.157c7.425 0 13.44 6.015 13.44 13.44v180.962c0 7.418-6.015 13.44-13.44 13.44zM168.739 186.815v154.076h107.277v-40.079h-53.519c-0.48 0.023-0.96 0.023-1.44 0-6.855-0.742-12.044-6.547-12-13.44v-100.557h-40.319zM343.215 273.932v-154.083h-107.277v154.083h107.277z" />
<glyph unicode="&#xe606;" glyph-name="creative-commons-sharealike" d="M255.683 476.158c-68.073 0-125.699-23.76-172.856-71.264-48.401-49.154-72.588-107.324-72.588-174.494s24.187-124.934 72.588-173.264c48.386-48.337 106.012-72.495 172.856-72.495 67.668 0 126.317 24.368 175.945 73.109 46.747 46.282 70.132 103.837 70.132 172.649s-23.79 126.974-71.362 174.494c-47.579 47.505-105.817 71.264-174.715 71.264zM256.301 431.931c55.777 0 103.139-19.664 142.109-58.988 39.368-38.909 59.047-86.421 59.047-142.543 0-56.52-19.267-103.424-57.825-140.707-40.604-40.139-88.379-60.202-143.332-60.202-54.959 0-102.322 19.868-142.105 59.595-39.779 39.735-59.669 86.835-59.669 141.314s20.096 101.992 60.288 142.543c38.553 39.323 85.709 58.988 141.486 58.988zM146.754 265.087c9.805 61.83 53.328 94.889 107.879 94.889 78.462 0 126.273-56.94 126.273-132.847 0-74.077-50.88-131.624-127.499-131.624-52.714 0-99.91 32.445-108.494 96.112h61.912c1.837-33.060 23.291-44.692 53.939-44.692 34.935 0 57.622 32.452 57.622 82.042 0 52.035-19.62 79.582-56.399 79.582-26.966 0-50.257-9.795-55.162-43.463l17.995 0.098-48.731-48.727-48.731 48.727 19.395-0.097z" />
<glyph unicode="&#xe607;" glyph-name="creative-commons" d="M195.875 188.724c-10.399 0-18.25 3.801-23.55 11.403-5.35 7.548-8 17.649-8 30.249 0 27.75 10.499 41.652 31.55 41.652 4.2 0 8.75-1.402 13.65-4.202s9.048-7.7 12.4-14.7l31.55 16.4c-12.6 22.7-33.5 34.050-62.651 34.050-19.925 0-36.399-6.6-49.397-19.75-13.052-13.2-19.603-30.999-19.603-53.45 0-23 6.478-40.95 19.351-53.85 12.9-12.9 29.901-19.3 50.9-19.3 13.2 0 25.25 3.3 36.177 9.849 10.923 6.603 19.474 15.651 25.673 27.151l-29.050 14.7c-5.6-13.45-15.276-20.202-29-20.202zM331.724 188.724c-10.399 0-18.247 3.801-23.55 11.403-5.35 7.548-8 17.649-8 30.249 0 27.75 10.502 41.652 31.55 41.652 4.452 0 9.151-1.402 14.051-4.202 4.926-2.8 9.050-7.7 12.45-14.7l31.099 16.4c-12.35 22.7-33.099 34.050-62.248 34.050-19.9 0-36.375-6.6-49.4-19.75-13.048-13.2-19.551-30.999-19.551-53.45 0-23 6.351-40.95 19.127-53.85 12.75-12.9 29.775-19.3 51.1-19.3 12.873 0 24.824 3.3 35.725 9.849 10.952 6.603 19.65 15.651 26.101 27.151l-29.452 14.7c-5.6-13.45-15.3-20.202-29.002-20.202zM430.408 404.894c-47.579 47.519-105.829 71.262-174.732 71.262-68.067 0-125.696-23.743-172.855-71.262-48.389-49.153-72.582-107.307-72.582-174.489 0-67.177 24.192-124.925 72.582-173.253 48.389-48.344 106.017-72.508 172.855-72.508 67.672 0 126.328 24.373 175.961 73.108 46.739 46.289 70.122 103.842 70.122 172.653 0 68.817-23.788 126.986-71.351 174.489zM399.642 89.701c-40.603-40.141-88.385-60.209-143.35-60.209-54.958 0-102.311 19.875-142.090 59.61-39.778 39.717-59.669 86.831-59.669 141.303 0 54.478 20.084 101.997 60.283 142.541 38.55 39.328 85.708 58.994 141.476 58.994 55.791 0 103.153-19.666 142.122-58.994 39.373-38.91 59.051-86.413 59.051-142.541 0-56.527-19.274-103.43-57.824-140.703z" />
<glyph unicode="&#xe608;" glyph-name="document-landscape" d="M486.4 409.6h-460.8c-14.131 0-25.6-11.443-25.6-25.6v-307.2c0-14.157 11.469-25.6 25.6-25.6h460.8c14.131 0 25.6 11.443 25.6 25.6v307.2c0 14.157-11.443 25.6-25.6 25.6zM460.8 102.4h-409.6v256h409.6v-256z" />
<glyph unicode="&#xe609;" glyph-name="warning" d="M499.481 26.112l-228.019 425.779c-3.175 5.504-9.063 8.909-15.463 8.909-6.425 0-12.314-3.405-15.463-8.909l-227.994-425.779c-3.098-5.401-3.046-12.058 0.128-17.408 3.2-5.401 9.011-8.704 15.309-8.704h456.038c6.272 0 12.135 3.303 15.309 8.704 3.175 5.351 3.226 12.007 0.154 17.408zM281.6 51.2h-51.2v51.2h51.2v-51.2zM281.6 140.8h-51.2v166.4h51.2v-166.4z" />
<glyph unicode="&#xe60a;" glyph-name="arrow-bold-down" d="M64 230.4h89.6v179.2h204.8v-179.2h89.6l-192-192-192 192z" />
<glyph unicode="&#xe60b;" glyph-name="arrow-bold-left" d="M256 422.4v-89.6h179.2v-204.8h-179.2v-89.6l-192 192 192 192z" />
<glyph unicode="&#xe60c;" glyph-name="arrow-bold-right" d="M448 230.4l-192-192v89.6h-179.2v204.8h179.2v89.6l192-192z" />
<glyph unicode="&#xe60d;" glyph-name="user" d="M379.392 116.531c-63.104 22.989-83.277 42.394-83.277 83.942 0 24.935 19.277 16.793 27.725 62.464 3.507 18.944 20.531 0.307 23.808 43.545 0 17.229-9.293 21.529-9.293 21.529s4.736 25.523 6.579 45.133c2.253 24.474-14.131 87.654-101.734 87.654-87.578 0-104.013-63.181-101.709-87.654 1.843-19.61 6.579-45.133 6.579-45.133s-9.319-4.275-9.319-21.529c3.251-43.238 20.275-24.601 23.782-43.545 8.474-45.671 27.75-37.53 27.75-62.464 0-41.549-20.173-60.954-83.277-83.942-63.334-23.040-104.448-46.567-104.448-62.618 0-16.026 0-53.888 0-53.888h481.28c0 0 0 37.863 0 53.888s-41.139 39.552-104.448 62.618z" />
<glyph unicode="&#xe60e;" glyph-name="users" d="M512 5.12c0 0-0.998 96.947-6.938 106.983-8.832 14.976-29.337 25.241-67.43 41.165-37.965 15.872-50.125 29.286-50.125 57.933 0 17.229 11.597 11.597 16.691 43.111 2.099 13.081 12.339 0.231 14.31 30.054 0 11.904-5.581 14.873-5.581 14.873s2.816 17.613 3.942 31.155c1.382 16.896-8.525 60.493-61.235 60.493s-62.567-43.623-61.209-60.493c1.101-13.542 3.917-31.155 3.917-31.155s-5.581-2.969-5.581-14.873c1.971-29.85 12.211-16.998 14.336-30.054 5.069-31.514 16.666-25.882 16.666-43.111 0-19.481-5.632-31.923-21.171-42.855 82.944-41.523 94.080-49.997 94.080-87.117v-76.109h115.328zM261.735 138.88c-50.662 21.145-66.816 39.014-66.816 77.235 0 22.938 15.463 15.463 22.246 57.498 2.791 17.433 16.487 0.281 19.072 40.064 0 15.872-7.45 19.815-7.45 19.815s3.789 23.475 5.274 41.549c1.843 22.477-11.367 80.64-81.638 80.64s-83.456-58.138-81.613-80.64c1.485-18.074 5.248-41.549 5.248-41.549s-7.424-3.942-7.424-19.815c2.637-39.808 16.282-22.656 19.097-40.064 6.784-42.035 22.246-34.535 22.246-57.498 0-38.221-16.205-56.089-66.816-77.235-15.437-6.451-43.161-16.461-43.161-40.474v-93.286h355.687c0 0 0 55.168 0 69.913 0 21.939-43.187 42.599-93.952 63.846z" />
<glyph unicode="&#xe60f;" glyph-name="user-add" d="M316.851 116.531c-63.769 22.989-84.147 42.394-84.147 83.942 0 24.935 19.482 16.793 28.032 62.464 3.558 18.944 20.762 0.307 24.013 43.545 0 17.229-9.37 21.529-9.37 21.529s4.787 25.523 6.63 45.133c2.304 24.474-14.285 87.654-102.81 87.654s-105.114-63.181-102.809-87.654c1.869-19.635 6.656-45.133 6.656-45.133s-9.395-4.275-9.395-21.529c3.302-43.238 20.505-24.601 24.013-43.545 8.576-45.671 28.058-37.53 28.058-62.464 0-41.549-20.403-60.954-84.173-83.942-7.68-2.739-25.984-7.040-41.549-13.773v-102.759h409.6c0 0 0 37.863 0 53.888s-28.749 39.577-92.749 62.643zM435.2 256v76.8h-51.2v-76.8h-76.8v-51.2h76.8v-76.8h51.2v76.8h76.8v51.2h-76.8z" />
<glyph unicode="&#xe610;" glyph-name="vcard" d="M460.8 435.2h-409.6c-28.16 0-51.2-23.040-51.2-51.2v-307.2c0-28.16 23.040-51.2 51.2-51.2h409.6c28.185 0 51.2 23.040 51.2 51.2v307.2c0 28.16-23.014 51.2-51.2 51.2zM460.8 76.8h-409.6v307.2h409.6v-307.2zM230.4 176.64h-128v-46.080h128v46.080zM230.4 253.44h-128v-46.080h128v46.080zM230.4 330.24h-128v-46.080h128v46.080zM407.040 166.4c0 0-43.52 11.366-43.52 33.741 0 21.299 28.185 30.259 28.185 73.779 0 35.328-10.752 56.32-46.106 56.32s-46.080-20.966-46.080-56.32c0-43.52 28.16-52.48 28.16-73.779 0-22.375-43.495-33.741-43.495-33.741-2.586 0-2.586-35.84-2.586-35.84h128c0 0 0 35.84-2.56 35.84z" />
<glyph unicode="&#xe611;" glyph-name="arrow-bold-up" d="M256 422.4l192-192h-89.6v-179.2h-204.8v179.2h-89.6l192 192z" />
<glyph unicode="&#xe612;" glyph-name="arrow-down" d="M256 38.4l-166.4 166.4h89.6v204.8h153.6v-204.8h89.6l-166.4-166.4z" />
<glyph unicode="&#xe613;" glyph-name="arrow-left" d="M64 230.4l166.4 166.4v-89.6h204.8v-153.6h-204.8v-89.6l-166.4 166.4z" />
<glyph unicode="&#xe614;" glyph-name="arrow-long-down" d="M256-6.4l-140.8 134.4h89.6v332.8h102.4v-332.8h89.6l-140.8-134.4z" />
<glyph unicode="&#xe615;" glyph-name="arrow-long-left" d="M19.2 230.4l134.4 140.8v-89.6h332.8v-102.4h-332.8v-89.6l-134.4 140.8z" />
<glyph unicode="&#xe616;" glyph-name="arrow-long-right" d="M358.4 89.6v89.6h-332.8v102.4h332.8v89.6l134.4-140.8-134.4-140.8z" />
<glyph unicode="&#xe617;" glyph-name="arrow-long-up" d="M256 467.2l140.8-134.4h-89.6v-332.8h-102.4v332.8h-89.6l140.8 134.4z" />
<glyph unicode="&#xe618;" glyph-name="arrow-right" d="M281.6 64v89.6h-204.8v153.6h204.8v89.6l166.4-166.4-166.4-166.4z" />
<glyph unicode="&#xe619;" glyph-name="arrow-up" d="M256 422.4l166.4-166.4h-89.6v-204.8h-153.6v204.8h-89.6l166.4 166.4z" />
<glyph unicode="&#xe61a;" glyph-name="arrow-with-circle-down" d="M256 476.16c-135.757 0-245.786-110.029-245.786-245.76 0-135.757 110.029-245.786 245.786-245.786 135.706 0 245.76 110.029 245.76 245.786 0 135.731-110.055 245.76-245.76 245.76zM255.975 35.84c-107.443 0-194.56 87.091-194.56 194.56s87.091 194.56 194.56 194.56 194.585-87.117 194.585-194.56-87.142-194.56-194.585-194.56zM307.2 332.8h-102.4v-102.4h-64l115.2-115.2 115.2 115.2h-64v102.4z" />
<glyph unicode="&#xe61b;" glyph-name="arrow-with-circle-left" d="M256 476.16c-135.757 0-245.786-110.029-245.786-245.76 0-135.757 110.029-245.786 245.786-245.786 135.706 0 245.76 110.029 245.76 245.786 0 135.731-110.055 245.76-245.76 245.76zM255.975 35.84c-107.443 0-194.56 87.091-194.56 194.56s87.091 194.56 194.56 194.56 194.585-87.117 194.585-194.56-87.142-194.56-194.585-194.56zM256 345.6l-115.2-115.2 115.2-115.2v64h102.4v102.4h-102.4v64z" />
<glyph unicode="&#xe61c;" glyph-name="arrow-with-circle-right" d="M256 476.16c-135.757 0-245.786-110.029-245.786-245.76 0-135.757 110.029-245.786 245.786-245.786 135.706 0 245.76 110.029 245.76 245.786 0 135.731-110.055 245.76-245.76 245.76zM255.975 35.84c-107.443 0-194.56 87.091-194.56 194.56s87.091 194.56 194.56 194.56 194.585-87.117 194.585-194.56-87.142-194.56-194.585-194.56zM256 281.6h-102.4v-102.4h102.4v-64l115.2 115.2-115.2 115.2v-64z" />
<glyph unicode="&#xe61d;" glyph-name="arrow-with-circle-up" d="M256 476.16c-135.757 0-245.786-110.029-245.786-245.76 0-135.757 110.029-245.786 245.786-245.786 135.706 0 245.76 110.029 245.76 245.786 0 135.731-110.055 245.76-245.76 245.76zM255.975 35.84c-107.443 0-194.56 87.091-194.56 194.56s87.091 194.56 194.56 194.56 194.585-87.117 194.585-194.56-87.142-194.56-194.585-194.56zM256 345.6l115.2-115.2h-64v-102.4h-102.4v102.4h-64l115.2 115.2z" />
<glyph unicode="&#xe61e;" glyph-name="chevron-down" d="M115.609 293.171c11.162 11.417 26.701 12.314 40.345 0l100.045-95.923 100.045 95.923c13.645 12.314 29.209 11.418 40.295 0 11.161-11.392 10.445-30.643 0-41.344-10.394-10.701-120.192-115.251-120.192-115.251-5.555-5.709-12.851-8.576-20.147-8.576s-14.592 2.867-20.198 8.576c0 0-109.747 104.551-120.192 115.251-10.471 10.701-11.162 29.952 0 41.344z" />
<glyph unicode="&#xe61f;" glyph-name="chevron-left" d="M318.771 370.791c11.418-11.161 12.313-26.701 0-40.345l-95.923-100.045 95.923-100.045c12.313-13.645 11.418-29.209 0-40.295-11.392-11.161-30.643-10.445-41.344 0-10.701 10.394-115.251 120.192-115.251 120.192-5.709 5.555-8.576 12.851-8.576 20.147s2.867 14.592 8.576 20.198c0 0 104.55 109.747 115.251 120.192 10.701 10.471 29.952 11.161 41.344 0z" />
<glyph unicode="&#xe620;" glyph-name="chevron-right" d="M234.573 370.791c10.701-10.445 115.251-120.192 115.251-120.192 5.709-5.607 8.576-12.903 8.576-20.198s-2.867-14.592-8.576-20.147c0 0-104.55-109.798-115.251-120.192-10.701-10.445-29.952-11.161-41.344 0-11.417 11.111-12.314 26.649 0 40.295l95.923 100.045-95.923 100.045c-12.314 13.645-11.417 29.21 0 40.346 11.392 11.162 30.643 10.471 41.344 0z" />
<glyph unicode="&#xe621;" glyph-name="chevron-small-down" d="M343.501 285.21c6.938 6.861 18.151 6.861 25.037 0 6.912-6.861 6.963-17.946 0-24.807l-100.045-98.048c-6.912-6.861-18.099-6.861-25.063 0l-100.045 98.048c-6.912 6.835-6.912 17.946 0 24.807 6.938 6.861 18.15 6.861 25.037 0l87.578-80.41 87.501 80.41z" />
<glyph unicode="&#xe622;" glyph-name="chevron-small-left" d="M310.81 142.899c6.861-6.938 6.861-18.151 0-25.037-6.861-6.912-17.945-6.963-24.806 0l-98.048 100.045c-6.861 6.912-6.861 18.099 0 25.063l98.048 100.045c6.835 6.912 17.945 6.912 24.807 0 6.861-6.938 6.861-18.151 0-25.037l-80.409-87.578 80.409-87.501z" />
<glyph unicode="&#xe623;" glyph-name="chevron-small-right" d="M281.6 230.4l-80.409 87.552c-6.861 6.912-6.861 18.099 0 25.037 6.861 6.912 17.946 6.912 24.806 0l98.048-100.045c6.861-6.938 6.861-18.151 0-25.063l-98.048-100.045c-6.835-6.963-17.946-6.912-24.806 0-6.861 6.887-6.861 18.099 0 25.037l80.41 87.527z" />
<glyph unicode="&#xe624;" glyph-name="chevron-small-up" d="M168.499 175.59c-6.938-6.861-18.15-6.861-25.037 0s-6.963 17.945 0 24.806l100.045 98.048c6.912 6.861 18.099 6.861 25.063 0l100.045-98.048c6.912-6.835 6.912-17.945 0-24.807-6.938-6.861-18.151-6.861-25.063 0l-87.552 80.41-87.501-80.41z" />
<glyph unicode="&#xe625;" glyph-name="chevron-thin-down" d="M445.901 330.010c6.963 6.861 18.151 6.861 25.063 0s6.938-17.946 0-24.807l-202.445-200.448c-6.912-6.861-18.099-6.861-25.063 0l-202.445 200.448c-6.912 6.861-6.912 17.945 0 24.806 6.938 6.861 18.151 6.861 25.063 0l189.926-182.81 189.901 182.81z" />
<glyph unicode="&#xe626;" glyph-name="chevron-thin-left" d="M355.61 40.499c6.861-6.963 6.861-18.151 0-25.063s-17.945-6.938-24.807 0l-200.448 202.445c-6.861 6.912-6.861 18.099 0 25.063l200.448 202.445c6.861 6.912 17.945 6.912 24.807 0 6.861-6.938 6.861-18.15 0-25.063l-182.81-189.926 182.81-189.901z" />
<glyph unicode="&#xe627;" glyph-name="chevron-thin-right" d="M339.2 230.4l-182.81 189.952c-6.861 6.912-6.861 18.099 0 25.063 6.861 6.912 17.946 6.912 24.806 0l200.448-202.445c6.861-6.938 6.861-18.151 0-25.063l-200.448-202.445c-6.861-6.938-17.946-6.912-24.806 0-6.861 6.887-6.861 18.099 0 25.063l182.81 189.875z" />
<glyph unicode="&#xe628;" glyph-name="chevron-thin-up" d="M66.099 130.79c-6.963-6.861-18.151-6.861-25.063 0s-6.938 17.945 0 24.807l202.445 200.448c6.912 6.861 18.099 6.861 25.063 0l202.445-200.448c6.912-6.861 6.912-17.945 0-24.807-6.938-6.861-18.151-6.861-25.037 0l-189.952 182.81-189.901-182.81z" />
<glyph unicode="&#xe629;" glyph-name="chevron-up" d="M396.39 167.629c-11.161-11.418-26.701-12.313-40.346 0l-100.045 95.923-100.045-95.923c-13.645-12.313-29.209-11.418-40.294 0-11.162 11.392-10.445 30.643 0 41.344 10.394 10.701 120.192 115.251 120.192 115.251 5.555 5.709 12.851 8.576 20.147 8.576s14.592-2.867 20.199-8.576c0 0 109.747-104.55 120.192-115.251 10.471-10.701 11.161-29.952 0-41.344z" />
<glyph unicode="&#xe62a;" glyph-name="level-down" d="M25.6 179.2v179.2h76.8v-153.6h256v76.8l128-115.2-128-115.2v76.8h-281.6c-28.288 0-51.2 22.938-51.2 51.2z" />
<glyph unicode="&#xe62b;" glyph-name="level-up" d="M486.4 256v-179.2h-76.8v153.6h-256v-76.8l-128 115.2 128 115.2v-76.8h281.6c28.262 0 51.2-22.963 51.2-51.2z" />
<glyph unicode="&#xe62c;" glyph-name="back" d="M486.4 307.2v-153.6c0-28.237-22.938-51.2-51.2-51.2h-358.4v76.8h332.8v102.4h-281.6v-51.2l-102.4 89.6 102.4 89.6v-51.2h307.2c28.262 0 51.2-22.937 51.2-51.2z" />
<glyph unicode="&#xe62d;" glyph-name="loop" d="M512 307.2v-179.2c0-28.237-22.938-51.2-51.2-51.2h-409.6c-28.262 0-51.2 22.963-51.2 51.2v179.2c0 28.262 22.938 51.2 51.2 51.2h179.2v51.2l102.4-89.6-102.4-89.6v51.2h-153.6v-128h358.4v128h-76.8v76.8h102.4c28.262 0 51.2-22.937 51.2-51.2z" />
<glyph unicode="&#xe62e;" glyph-name="retweet" d="M128 153.6v128h51.2l-89.6 102.4-89.6-102.4h51.2v-153.6c0-28.262 22.912-51.2 51.2-51.2h242.739l-67.533 76.8h-149.607zM234.393 307.2l-67.533 76.8h242.739c28.262 0 51.2-22.963 51.2-51.2v-153.6h51.2l-89.6-102.4-89.6 102.4h51.2v128h-149.607z" />
<glyph unicode="&#xe62f;" glyph-name="swap" d="M358.4 358.4h-256v51.2l-102.4-89.6 102.4-89.6v51.2h256v76.8zM512 140.8l-102.4 89.6v-51.2h-256v-76.8h256v-51.2l102.4 89.6z" />
<glyph unicode="&#xe630;" glyph-name="shuffle" d="M386.381 315.034h23.552v-73.267l102.067 103.014-102.093 103.040v-61.107h-23.552c-94.567 0-147.865-70.093-194.918-131.891-42.291-55.603-78.848-103.655-137.881-103.655h-53.555v-71.654h53.581c94.566 0 147.865 70.041 194.918 131.891 42.291 55.629 78.848 103.629 137.881 103.629zM138.496 269.875c4.045 5.197 8.089 10.547 12.211 15.949 9.984 13.159 20.583 27.008 32.051 40.858-33.843 31.59-74.624 54.886-129.178 54.886h-53.581v-71.654h53.581c33.971 0 60.467-15.949 84.915-40.038zM409.907 146.073h-23.552c-36.019 0-63.667 17.945-89.37 44.493-2.56-3.353-5.146-6.759-7.757-10.163-11.289-14.848-23.424-30.745-36.839-46.541 34.714-33.894 76.8-59.495 133.939-59.495h23.552v-61.389l102.118 103.040-102.093 103.040v-72.986z" />
<glyph unicode="&#xe631;" glyph-name="controller-fast-backward" d="M459.75 369.382l-184.397-126.694c0 0-7.142-5.145-7.142-12.313s7.142-12.263 7.142-12.263l184.397-126.745c14.643-9.728 26.649-2.534 26.649 16.026v245.99c0 18.611-12.007 25.805-26.649 16zM227.405 369.382l-184.397-126.694c0 0-7.142-5.145-7.142-12.313s7.142-12.263 7.142-12.263l184.397-126.745c14.643-9.753 26.649-2.56 26.649 16v246.016c0 18.611-12.006 25.805-26.649 16z" />
<glyph unicode="&#xe632;" glyph-name="controller-fast-forward" d="M236.647 242.688l-184.397 126.695c-14.643 9.805-26.649 2.611-26.649-16v-245.991c0-18.56 12.006-25.753 26.649-16l184.397 126.745c0 0 7.143 5.094 7.143 12.237 0 7.168-7.143 12.314-7.143 12.314zM476.16 230.374c0-7.143-7.142-12.237-7.142-12.237l-184.397-126.745c-14.643-9.753-26.649-2.56-26.649 16v245.99c0 18.611 12.007 25.805 26.649 16l184.371-126.694c0 0 7.168-5.145 7.168-12.313z" />
<glyph unicode="&#xe633;" glyph-name="controller-jump-to-start" d="M382.95 369.382l-184.397-126.694c0 0-7.143-5.145-7.143-12.313s7.143-12.263 7.143-12.263l184.397-126.745c14.643-9.728 26.649-2.534 26.649 16.026v245.99c0 18.611-12.007 25.805-26.649 16zM153.6 384h-25.6c-14.157 0-25.6-1.229-25.6-15.36v-276.48c0-14.131 11.443-15.36 25.6-15.36h25.6c14.157 0 25.6 1.229 25.6 15.36v276.48c0 14.131-11.443 15.36-25.6 15.36z" />
<glyph unicode="&#xe634;" glyph-name="controller-next" d="M313.447 242.688l-184.397 126.695c-14.643 9.805-26.65 2.611-26.65-16v-245.991c0-18.56 12.007-25.753 26.65-16l184.397 126.745c0 0 7.142 5.094 7.142 12.237 0 7.168-7.142 12.314-7.142 12.314zM358.4 384h25.6c14.157 0 25.6-1.229 25.6-15.36v-276.48c0-14.131-11.443-15.36-25.6-15.36h-25.6c-14.157 0-25.6 1.229-25.6 15.36v276.48c0 14.131 11.443 15.36 25.6 15.36z" />
<glyph unicode="&#xe635;" glyph-name="controller-paus" d="M384 409.6h-51.2c-14.157 0-25.6-1.229-25.6-15.36v-327.68c0-14.131 11.443-15.36 25.6-15.36h51.2c14.157 0 25.6 1.229 25.6 15.36v327.68c0 14.131-11.443 15.36-25.6 15.36zM179.2 409.6h-51.2c-14.157 0-25.6-1.229-25.6-15.36v-327.68c0-14.131 11.443-15.36 25.6-15.36h51.2c14.157 0 25.6 1.229 25.6 15.36v327.68c0 14.131-11.443 15.36-25.6 15.36z" />
<glyph unicode="&#xe636;" glyph-name="controller-play" d="M384 230.374c0-7.655-7.808-13.159-7.808-13.159l-219.161-135.757c-15.975-10.471-29.030-2.714-29.030 17.127v263.603c0 19.891 13.056 27.597 29.056 17.152l219.161-135.808c-0.026 0 7.783-5.504 7.783-13.159z" />
<glyph unicode="&#xe637;" glyph-name="controller-record" d="M256 409.6c-98.969 0-179.2-80.205-179.2-179.2 0-98.944 80.231-179.2 179.2-179.2s179.2 80.256 179.2 179.2c0 98.995-80.231 179.2-179.2 179.2z" />
<glyph unicode="&#xe638;" glyph-name="controller-stop" d="M409.6 358.528v-251.085c0-16.921-13.721-30.643-30.618-30.643h-251.059c-14.106 0-25.523 11.418-25.523 25.523v251.059c0 16.896 13.722 30.618 30.618 30.618h251.085c14.080 0 25.498-11.418 25.498-25.472z" />
<glyph unicode="&#xe639;" glyph-name="reply" d="M486.4 59.264c0 0-56.96 249.139-281.6 249.139v101.99l-179.2-168.269 179.2-171.264v111.539c121.933 0.026 218.010-10.777 281.6-123.136z" />
<glyph unicode="&#xe63a;" glyph-name="airplane" d="M136.96-22.528h51.2l114.893 204.826h132.147c0 0 76.8 0 76.8 35.815 0 35.84-76.8 35.84-76.8 35.84h-132.147l-114.893 204.8h-51.2l63.693-204.8h-91.827l-57.626 51.225h-51.2l40.986-87.040-40.986-87.065h51.2l57.626 51.226h91.827l-63.693-204.826z" />
<glyph unicode="&#xe63b;" glyph-name="reply-all" d="M184.96 338.765v68.634l-184.96-165.274 184.96-171.29v71.091l-108.16 100.199 108.16 96.64zM312.96 308.403v98.995l-184.96-165.274 184.96-171.29v111.539c84.275 0 135.45-10.803 199.040-123.136 0 0.026-9.421 249.165-199.040 249.165z" />
<glyph unicode="&#xe63c;" glyph-name="forward" d="M307.2 182.425v-111.539l179.2 171.264-179.2 168.243v-101.965c-224.64 0-281.6-249.139-281.6-249.139 63.59 112.333 159.667 123.136 281.6 123.136z" />
<glyph unicode="&#xe63d;" glyph-name="clock" d="M256 465.92c-130.073 0-235.52-105.472-235.52-235.52 0-130.073 105.447-235.52 235.52-235.52s235.52 105.447 235.52 235.52c0 130.074-105.447 235.52-235.52 235.52zM256 46.080c-101.811 0-184.32 82.534-184.32 184.32s82.509 184.32 184.32 184.32 184.32-82.534 184.32-184.32-82.509-184.32-184.32-184.32zM273.92 363.52h-35.84v-140.544l87.168-87.168 25.344 25.344-76.672 76.672z" />
<glyph unicode="&#xe63e;" glyph-name="controller-volume" d="M486.4 132.992c0-16.819-13.773-30.592-30.592-30.592h-416.563c-22.528 0-25.139 9.498-5.862 21.043l417.869 231.808c19.328 11.597 35.149 2.663 35.149-19.891v-202.368z" />
<glyph unicode="&#xe63f;" glyph-name="dot-single" d="M199.68 230.4c0-31.104 25.242-56.32 56.346-56.32s56.295 25.241 56.295 56.32c0 31.104-25.19 56.294-56.294 56.294s-56.346-25.19-56.346-56.294z" />
<glyph unicode="&#xe640;" glyph-name="dots-three-horizontal" d="M256.026 286.72c-31.104 0-56.346-25.216-56.346-56.32s25.242-56.32 56.346-56.32c31.104 0 56.295 25.216 56.295 56.32s-25.19 56.32-56.294 56.32zM76.826 286.72c-31.104 0-56.346-25.216-56.346-56.32s25.242-56.32 56.346-56.32c31.104 0 56.294 25.241 56.294 56.32s-25.191 56.32-56.294 56.32zM435.226 286.72c-31.104 0-56.346-25.216-56.346-56.32s25.241-56.32 56.346-56.32c31.104 0 56.294 25.216 56.294 56.32s-25.19 56.32-56.294 56.32z" />
<glyph unicode="&#xe641;" glyph-name="dots-two-horizontal" d="M358.425 286.72c-31.104 0-56.346-25.216-56.346-56.32s25.241-56.32 56.346-56.32c31.104 0 56.295 25.216 56.295 56.32s-25.19 56.32-56.294 56.32zM153.625 286.72c-31.104 0-56.346-25.216-56.346-56.32s25.242-56.32 56.346-56.32c31.104 0 56.294 25.241 56.294 56.32s-25.191 56.32-56.294 56.32z" />
<glyph unicode="&#xe642;" glyph-name="flow-branch" d="M419.84 384c0 33.945-27.495 61.44-61.44 61.44s-61.44-27.495-61.44-61.44c0-24.601 14.541-45.671 35.43-55.475-2.099-40.55-32.512-54.323-85.376-74.137-22.272-8.371-46.822-17.638-67.814-31.591v105.498c21.12 9.728 35.84 30.951 35.84 55.706 0 33.945-27.494 61.44-61.44 61.44s-61.44-27.495-61.44-61.44c0-24.755 14.745-45.977 35.84-55.706v-195.815c-21.12-9.702-35.84-30.925-35.84-55.68 0-33.945 27.495-61.44 61.44-61.44s61.44 27.52 61.44 61.44c0 24.601-14.541 45.671-35.43 55.475 2.099 40.525 32.537 54.323 85.376 74.137 51.968 19.507 116.25 43.802 118.784 121.754 21.223 9.677 36.070 30.976 36.070 55.834zM153.6 419.456c19.559 0 35.43-15.846 35.43-35.456 0-19.558-15.872-35.456-35.43-35.456-19.584 0-35.43 15.898-35.43 35.456 0 19.61 15.846 35.456 35.43 35.456zM153.6 41.344c-19.609 0-35.456 15.897-35.456 35.456 0 19.61 15.847 35.456 35.456 35.456 19.559 0 35.43-15.846 35.43-35.456 0-19.558-15.872-35.456-35.43-35.456zM358.4 348.544c-19.61 0-35.456 15.898-35.456 35.456 0 19.61 15.846 35.456 35.456 35.456 19.558 0 35.43-15.846 35.43-35.456 0-19.558-15.872-35.456-35.43-35.456z" />
<glyph unicode="&#xe643;" glyph-name="flow-cascade" d="M358.4 112.64c-24.755 0-45.978-14.745-55.706-35.84h-85.094c-21.197 0-38.4 17.203-38.4 38.4v98.56c11.673-5.581 24.602-8.96 38.4-8.96h85.094c9.728-21.094 30.925-35.84 55.706-35.84 33.945 0 61.44 27.52 61.44 61.44s-27.495 61.44-61.44 61.44c-24.755 0-45.978-14.745-55.706-35.84h-85.094c-21.197 0-38.4 17.203-38.4 38.4v59.495c21.12 9.728 35.84 30.95 35.84 55.705 0 33.945-27.494 61.44-61.44 61.44s-61.44-27.495-61.44-61.44c0-24.755 14.745-45.978 35.84-55.705v-238.695c0-49.485 40.115-89.6 89.6-89.6h85.094c9.728-21.094 30.925-35.84 55.706-35.84 33.945 0 61.44 27.52 61.44 61.44s-27.495 61.44-61.44 61.44zM358.4 265.856c19.558 0 35.43-15.846 35.43-35.456 0-19.559-15.872-35.456-35.43-35.456-19.61 0-35.456 15.897-35.456 35.456 0.026 19.609 15.872 35.456 35.456 35.456zM153.6 445.056c19.559 0 35.43-15.846 35.43-35.456 0-19.559-15.872-35.456-35.43-35.456-19.584 0-35.43 15.897-35.43 35.456 0 19.609 15.846 35.456 35.43 35.456zM358.4 15.744c-19.61 0-35.456 15.897-35.456 35.456 0 19.61 15.846 35.456 35.456 35.456 19.558 0 35.43-15.846 35.43-35.456 0-19.558-15.872-35.456-35.43-35.456z" />
<glyph unicode="&#xe644;" glyph-name="flow-line" d="M281.6 132.505v195.789c21.12 9.728 35.84 30.925 35.84 55.706 0 33.945-27.495 61.44-61.44 61.44s-61.44-27.495-61.44-61.44c0-24.755 14.745-45.977 35.84-55.706v-195.815c-21.12-9.702-35.84-30.925-35.84-55.68 0-33.945 27.494-61.44 61.44-61.44s61.44 27.52 61.44 61.44c0 24.755-14.72 45.978-35.84 55.706zM256 419.456c19.558 0 35.43-15.846 35.43-35.456 0-19.558-15.872-35.456-35.43-35.456-19.584 0-35.43 15.898-35.43 35.456 0 19.61 15.846 35.456 35.43 35.456zM256 41.344c-19.609 0-35.456 15.897-35.456 35.456 0 19.61 15.846 35.456 35.456 35.456 19.558 0 35.43-15.846 35.43-35.456 0-19.558-15.872-35.456-35.43-35.456z" />
<glyph unicode="&#xe645;" glyph-name="flow-parallel" d="M215.040 384c0 33.945-27.494 61.44-61.44 61.44s-61.44-27.495-61.44-61.44c0-24.755 14.745-45.977 35.84-55.706v-195.815c-21.12-9.702-35.84-30.925-35.84-55.68 0-33.945 27.495-61.44 61.44-61.44s61.44 27.52 61.44 61.44c0 24.755-14.745 45.978-35.84 55.706v195.789c21.12 9.728 35.84 30.951 35.84 55.706zM189.030 76.8c0-19.558-15.872-35.456-35.43-35.456-19.609 0-35.456 15.897-35.456 35.456 0 19.61 15.847 35.456 35.456 35.456 19.559 0 35.43-15.846 35.43-35.456zM153.6 348.544c-19.584 0-35.43 15.898-35.43 35.456 0 19.61 15.846 35.456 35.456 35.456 19.559 0 35.43-15.846 35.43-35.456-0.025-19.558-15.898-35.456-35.456-35.456zM384 132.505v195.789c21.12 9.728 35.84 30.925 35.84 55.706 0 33.945-27.495 61.44-61.44 61.44s-61.44-27.495-61.44-61.44c0-24.755 14.745-45.977 35.84-55.706v-195.815c-21.12-9.728-35.84-30.925-35.84-55.705 0-33.945 27.495-61.44 61.44-61.44s61.44 27.52 61.44 61.44c0 24.781-14.72 46.003-35.84 55.731zM322.969 384c0 19.61 15.846 35.456 35.456 35.456 19.558 0 35.43-15.846 35.43-35.456 0-19.558-15.872-35.456-35.43-35.456-19.61 0-35.456 15.898-35.456 35.456zM358.4 41.344c-19.61 0-35.456 15.897-35.456 35.456 0 19.61 15.846 35.456 35.456 35.456 19.558 0 35.43-15.846 35.43-35.456 0-19.558-15.872-35.456-35.43-35.456z" />
<glyph unicode="&#xe646;" glyph-name="flow-tree" d="M460.8 106.905v59.495c0 49.485-40.115 89.6-89.6 89.6h-51.2c-21.197 0-38.4 17.203-38.4 38.4v59.495c21.12 9.728 35.84 30.925 35.84 55.706 0 33.945-27.495 61.44-61.44 61.44s-61.44-27.495-61.44-61.44c0-24.755 14.745-45.977 35.84-55.706v-59.495c0-21.197-17.203-38.4-38.4-38.4h-51.2c-49.485 0-89.6-40.115-89.6-89.6v-59.495c-21.12-9.728-35.84-30.95-35.84-55.706 0-33.945 27.495-61.44 61.44-61.44s61.44 27.52 61.44 61.44c0 24.755-14.745 45.978-35.84 55.706v59.495c0 21.197 17.203 38.4 38.4 38.4h51.2c13.798 0 26.726 3.379 38.4 8.96v-106.854c-21.12-9.728-35.84-30.95-35.84-55.706 0-33.945 27.494-61.44 61.44-61.44s61.44 27.52 61.44 61.44c0 24.755-14.745 45.978-35.84 55.706v106.855c11.673-5.581 24.601-8.96 38.4-8.96h51.2c21.197 0 38.4-17.203 38.4-38.4v-59.495c-21.12-9.728-35.84-30.925-35.84-55.705 0-33.945 27.495-61.44 61.44-61.44s61.44 27.52 61.44 61.44c0 24.755-14.72 45.978-35.84 55.706zM256 445.056c19.558 0 35.43-15.846 35.43-35.456 0-19.559-15.872-35.456-35.43-35.456-19.584 0-35.43 15.897-35.43 35.456 0 19.609 15.846 35.456 35.43 35.456zM76.8 15.744c-19.609 0-35.456 15.897-35.456 35.456 0 19.61 15.846 35.456 35.456 35.456 19.558 0 35.431-15.846 35.431-35.456 0-19.558-15.872-35.456-35.43-35.456zM256 15.744c-19.609 0-35.456 15.897-35.456 35.456 0 19.61 15.846 35.456 35.456 35.456 19.558 0 35.43-15.846 35.43-35.456 0-19.558-15.872-35.456-35.43-35.456zM435.2 15.744c-19.61 0-35.456 15.897-35.456 35.456 0 19.61 15.846 35.456 35.456 35.456 19.558 0 35.43-15.846 35.43-35.456 0-19.558-15.872-35.456-35.43-35.456z" />
<glyph unicode="&#xe647;" glyph-name="open-book" d="M271.232 353.382l11.418-35.098c9.447 8.090 21.376 15.335 36.889 20.352 15.104 4.915 28.442 7.68 40.499 9.267l-11.008 33.869c-12.185-1.767-25.625-4.608-40.448-9.421-14.797-4.813-27.008-11.52-37.351-18.969zM294.963 280.294l11.418-35.097c9.447 8.089 21.376 15.334 36.889 20.352 15.104 4.915 28.442 7.68 40.499 9.267l-11.008 33.869c-12.185-1.767-25.625-4.608-40.448-9.421-14.797-4.787-26.983-11.495-37.351-18.97zM318.72 207.232l11.418-35.097c9.447 8.089 21.376 15.334 36.889 20.352 15.104 4.915 28.442 7.68 40.499 9.267l-11.008 33.869c-12.185-1.767-25.625-4.608-40.448-9.421-14.822-4.787-27.008-11.52-37.351-18.97zM137.933 151.629l11.008-33.869c10.675 5.786 23.091 11.392 38.195 16.281 15.513 5.043 29.415 6.195 41.805 5.197l-11.417 35.098c-12.774-0.051-26.573-1.792-41.344-6.579-14.822-4.813-27.367-10.394-38.246-16.128zM90.445 297.779l11.008-33.869c10.675 5.786 23.091 11.367 38.195 16.282 15.513 5.043 29.415 6.195 41.805 5.197l-11.392 35.123c-12.774-0.077-26.573-1.792-41.369-6.605-14.823-4.813-27.367-10.393-38.246-16.128zM114.176 224.691l11.008-33.869c10.675 5.786 23.091 11.392 38.195 16.281 15.513 5.043 29.415 6.195 41.805 5.197l-11.392 35.123c-12.774-0.051-26.573-1.792-41.344-6.579-14.822-4.813-27.392-10.419-38.272-16.154zM283.238 450.304c-44.109-14.336-67.149-44.851-78.157-65.51-21.043 10.24-57.6 21.376-101.709 7.040-64.589-20.992-101.606-67.251-101.606-67.251l104.832-322.227c3.225-9.907 16.538-12.211 22.477-3.661 12.774 18.406 37.376 42.445 83.379 57.395 43.981 14.285 76.007-1.382 93.568-14.797 6.963-5.325 16.947-1.536 19.507 6.861 6.451 21.171 23.219 52.224 66.816 66.381 46.055 14.976 80.103 9.959 101.274 2.56 9.856-3.43 19.2 6.195 16 16.103l-104.653 322.406c0 0-57.139 15.667-121.728-5.299zM280.346 95.846c-20.966 6.247-48.666 9.165-80.409-1.127-32.025-10.394-54.451-24.295-69.094-35.942l-83.072 255.539c9.165 9.165 30.387 26.675 68.147 38.938 35.558 11.545 64.717 1.664 83.942-9.677l80.486-247.731zM456.832 164.685c-18.714 0.819-45.031-1.127-77.056-11.546-31.744-10.317-52.429-28.979-65.715-46.336l-80.487 247.731c8.857 20.48 26.624 45.619 62.208 57.165 37.735 12.262 65.203 10.573 78.003 8.55l83.046-255.565z" />
<glyph unicode="&#xe648;" glyph-name="resize-100" d="M104.96 125.44l-79.36-74.24 51.2-51.2 74.24 79.36 53.76-53.76v153.6h-153.6l53.76-53.76zM486.4 409.6l-51.2 51.2-74.24-79.36-53.76 53.76v-153.6h153.6l-53.76 53.76 79.36 74.24z" />
<glyph unicode="&#xe649;" glyph-name="resize-full-screen" d="M178.867 205.133l-75.034-77.594-52.633 62.183v-164.121h163.507l-62.208 53.274 77.568 75.059-51.2 51.2zM297.293 435.2l62.208-53.273-77.568-75.059 51.2-51.2 75.034 77.593 52.633-62.183v164.122h-163.507z" />
<glyph unicode="&#xe64a;" glyph-name="select-arrows" d="M256 460.8l-128-179.2h256l-128 179.2zM256 0l128 179.2h-256l128-179.2z" />
<glyph unicode="&#xe64b;" glyph-name="triangle-down" d="M128 332.8h256l-128-230.4-128 230.4z" />
<glyph unicode="&#xe64c;" glyph-name="triangle-left" d="M358.4 358.4v-256l-230.4 128 230.4 128z" />
<glyph unicode="&#xe64d;" glyph-name="triangle-right" d="M384 230.4l-230.4-128v256l230.4-128z" />
<glyph unicode="&#xe64e;" glyph-name="triangle-up" d="M384 128h-256l128 230.4 128-230.4z" />
<glyph unicode="&#xe64f;" glyph-name="drive" d="M487.911 207.411l-81.178 202.931c-5.99 15.027-20.531 24.858-36.711 24.858h-228.045c-16.179 0-30.72-9.831-36.71-24.858l-81.177-202.931c-7.373-18.457-9.549-38.579-6.297-58.163l15.104-90.599c3.175-19.072 19.661-33.050 38.989-33.050h368.205c19.328 0 35.815 13.978 38.989 33.050l15.104 90.599c3.303 19.584 1.127 39.705-6.272 58.163zM434.151 96.128c-1.843-11.161-11.495-19.328-22.81-19.328h-310.682c-11.315 0-20.966 8.166-22.809 19.328l-9.344 56.141c-2.381 14.106 8.499 26.931 22.809 26.931h329.395c14.285 0 25.165-12.825 22.81-26.931l-9.37-56.141z" />
<glyph unicode="&#xe650;" glyph-name="install" d="M487.911 207.411l-81.178 202.931c-5.99 15.027-20.531 24.858-36.711 24.858h-62.31l9.728-104.064h69.12l-130.56-108.237-130.56 108.237h69.12l9.728 104.064h-62.31c-16.179 0-30.72-9.83-36.71-24.858l-81.177-202.931c-7.373-18.457-9.549-38.579-6.297-58.163l15.104-90.599c3.175-19.072 19.661-33.050 38.989-33.050h368.205c19.328 0 35.815 13.978 38.989 33.050l15.104 90.599c3.303 19.584 1.127 39.705-6.272 58.163zM434.151 96.128c-1.843-11.161-11.495-19.328-22.81-19.328h-310.682c-11.315 0-20.966 8.166-22.809 19.328l-9.344 56.141c-2.381 14.106 8.499 26.931 22.809 26.931h329.395c14.285 0 25.165-12.825 22.81-26.931l-9.37-56.141z" />
<glyph unicode="&#xe651;" glyph-name="cloud" d="M512 196.608c0-66.151-54.887-119.808-122.547-119.808h-296.858c-51.149 0-92.595 40.55-92.595 90.547 0 49.945 41.447 90.496 92.595 90.496 3.737 0 7.373-0.307 10.983-0.691-0.947 6.298-1.459 12.749-1.459 19.353 0 73.498 60.954 133.095 136.192 133.095 61.619 0 113.638-39.987 130.458-94.899 6.733 1.101 13.619 1.689 20.711 1.689 67.635 0 122.522-53.581 122.522-119.783z" />
<glyph unicode="&#xe652;" glyph-name="upload-to-cloud" d="M389.453 316.442c-7.065 0-13.978-0.64-20.711-1.741-16.793 54.912-68.813 94.899-130.432 94.899-75.239 0-136.192-59.597-136.192-133.095 0-6.553 0.512-13.005 1.459-19.353-3.609 0.435-7.245 0.691-10.983 0.691-51.149 0-92.595-40.499-92.595-90.496s41.447-90.547 92.595-90.547h112.205v102.4h-64l115.2 128 115.2-128h-64v-102.4h82.253c67.661 0 122.547 53.658 122.547 119.808 0 66.202-54.887 119.834-122.547 119.834z" />
<glyph unicode="&#xe653;" glyph-name="thunder-cloud" d="M389.453 316.39c-7.065 0-13.978-0.589-20.711-1.689-16.793 54.912-68.839 94.899-130.432 94.899-75.239 0-136.192-59.597-136.192-133.095 0-6.605 0.512-13.056 1.459-19.353-3.635 0.41-7.27 0.691-10.983 0.691-51.149 0-92.595-40.55-92.595-90.496 0-49.997 41.447-90.547 92.595-90.547h296.858c67.661 0 122.547 53.658 122.547 119.808 0 66.202-54.887 119.783-122.547 119.783zM291.098 206.054c-12.647-17.997-66.918-73.959-69.222-76.288-2.662-3.303-10.010-8.807-16.973-4.25-2.023 1.305-4.403 3.891-4.403 9.063 0 4.941 2.253 10.010 2.509 10.547l26.445 58.547c-4.941 1.997-13.491 5.401-20.096 8.294l-1.741 0.743c-6.707 2.841-15.053 6.4-15.053 15.539 0 4.403 2.073 9.549 6.375 15.59 12.672 18.048 66.918 73.959 69.248 76.339 2.637 3.251 9.984 8.755 16.973 4.25 1.997-1.305 4.377-3.942 4.377-9.063 0-4.941-2.253-10.010-2.509-10.599l-26.471-58.496c4.992-1.997 13.517-5.453 20.147-8.294l1.741-0.743c6.707-2.841 15.053-6.4 15.053-15.591 0-4.403-2.099-9.498-6.4-15.591z" />
<glyph unicode="&#xe654;" glyph-name="database" d="M428.185 162.79c-21.581-34.893-90.496-60.442-172.185-60.442s-150.605 25.549-172.211 60.442c-4.557 7.424-6.989 3.456-6.989-0.179 0-3.687 0-51.251 0-51.251 0-49.664 80.231-101.12 179.2-101.12s179.2 51.456 179.2 101.094c0 0 0 47.565 0 51.251 0 3.661-2.457 7.629-7.014 0.205zM428.467 293.76c-21.248-30.848-90.419-53.504-172.467-53.504s-151.245 22.656-172.493 53.504c-4.377 6.349-6.707 2.893-6.707 0.051 0-2.893 0-60.339 0-60.339 0-45.107 80.231-81.639 179.2-81.639s179.2 36.557 179.2 81.639c0 0 0 57.447 0 60.339 0 2.841-2.355 6.298-6.733-0.051zM256 460.8c-98.969 0-179.2-30.208-179.2-67.405v-32.256c0-39.45 80.231-71.45 179.2-71.45s179.2 32 179.2 71.45v32.256c0 37.197-80.231 67.405-179.2 67.405z" />
<glyph unicode="&#xe655;" glyph-name="inbox" d="M492.877 242.125c-9.933 10.649-57.984 58.138-79.923 79.821-6.733 6.63-16.358 10.854-26.445 10.854h-261.017c-10.087 0-19.712-4.224-26.445-10.854-21.965-21.683-69.99-69.146-79.923-79.821-12.416-13.338-18.509-23.091-15.975-37.095s11.93-67.942 14.234-78.695c2.253-10.726 17.511-23.936 31.744-23.936h413.747c14.233 0 29.491 13.209 31.769 23.936 2.279 10.752 11.699 64.691 14.233 78.695s-3.558 23.783-16 37.095zM358.759 230.323c-2.586 0-4.941-1.331-6.093-3.405l-20.736-47.719h-151.859l-20.71 47.719c-1.152 2.074-3.507 3.405-6.093 3.405h-89.959l51.763 51.277h281.856l51.789-51.277h-89.959z" />
<glyph unicode="&#xe656;" glyph-name="upload" d="M204.8 179.2h102.4v153.6h76.8l-128 128-128-128h76.8v-153.6zM495.053 139.981c-5.376 5.735-41.241 44.109-51.481 54.118-6.784 6.63-16.486 10.701-26.675 10.701h-44.979l78.438-76.647h-90.726c-2.611 0-4.966-1.331-6.144-3.405l-20.889-47.949h-153.19l-20.889 47.949c-1.178 2.074-3.559 3.405-6.144 3.405h-90.727l78.413 76.647h-44.953c-10.163 0-19.865-4.070-26.675-10.701-10.24-10.035-46.105-48.409-51.481-54.118-12.518-13.337-19.405-23.962-16.128-37.094l14.361-78.695c3.277-13.159 17.69-23.962 32.051-23.962h417.587c14.361 0 28.774 10.803 32.051 23.962l14.361 78.695c3.226 13.133-3.635 23.757-16.179 37.094z" />
<glyph unicode="&#xe657;" glyph-name="download" d="M384 307.2h-76.8v153.6h-102.4v-153.6h-76.8l128-128 128 128zM495.053 139.981c-5.376 5.735-41.241 44.109-51.481 54.118-6.784 6.63-16.486 10.701-26.675 10.701h-44.979l78.438-76.647h-90.726c-2.611 0-4.966-1.331-6.144-3.405l-20.889-47.949h-153.19l-20.889 47.949c-1.178 2.074-3.559 3.405-6.144 3.405h-90.727l78.413 76.647h-44.953c-10.163 0-19.865-4.070-26.675-10.701-10.24-10.035-46.105-48.409-51.481-54.118-12.518-13.337-19.405-23.962-16.128-37.094l14.361-78.695c3.277-13.159 17.69-23.962 32.051-23.962h417.587c14.361 0 28.774 10.803 32.051 23.962l14.361 78.695c3.226 13.133-3.635 23.757-16.179 37.094z" />
<glyph unicode="&#xe658;" glyph-name="air" d="M67.661 323.661c44.723 38.4 80.051 68.762 175.923 14.592 46.055-26.010 83.2-35.84 114.099-35.789 54.144 0 89.241 30.106 119.577 56.141 10.829 9.293 12.211 25.805 3.123 36.839-9.139 11.059-25.267 12.493-36.096 3.2-44.697-38.451-80.051-68.813-175.923-14.592-126.669 71.501-186.010 20.557-233.677-20.403-10.803-9.293-12.185-25.753-3.098-36.838 9.113-11.008 25.241-12.467 36.070-3.149zM444.288 267.904c-44.697-38.4-80.051-68.813-175.923-14.592-126.669 71.552-186.010 20.583-233.677-20.352-10.803-9.293-12.211-25.805-3.098-36.839 9.088-11.059 25.241-12.493 36.070-3.2 44.723 38.426 80.051 68.787 175.923 14.643 46.055-26.061 83.2-35.84 114.099-35.84 54.144 0 89.241 30.106 119.577 56.192 10.829 9.293 12.211 25.805 3.123 36.813-9.113 11.085-25.267 12.467-36.096 3.175zM444.288 137.19c-44.697-38.451-80.051-68.813-175.923-14.643-126.669 71.552-186.010 20.608-233.677-20.352-10.803-9.293-12.211-25.805-3.098-36.839 9.088-11.059 25.241-12.442 36.070-3.149 44.723 38.4 80.051 68.736 175.923 14.592 46.055-26.010 83.2-35.84 114.099-35.84 54.144 0 89.241 30.157 119.577 56.192 10.829 9.293 12.211 25.805 3.123 36.839-9.113 11.059-25.267 12.467-36.096 3.2z" />
<glyph unicode="&#xe659;" glyph-name="music" d="M409.6 460.8h-307.2c-14.157 0-25.6-11.443-25.6-25.6v-409.6c0-14.131 11.443-25.6 25.6-25.6h307.2c14.157 0 25.6 11.469 25.6 25.6v409.6c0 14.131-11.443 25.6-25.6 25.6zM327.552 191.513c-4.736-9.779-9.549-10.291-7.45 0 5.401 26.599 1.741 83.738-38.502 90.087v-121.6c0-24.909-11.469-46.592-41.959-56.397-29.594-9.447-62.695 0.409-70.451 21.657s9.651 47.104 38.861 57.754c16.307 5.939 35.2 7.475 47.949 2.586v172.8h25.6c0-60.288 104.064-47.079 45.952-166.887z" />
<glyph unicode="&#xe65a;" glyph-name="note2" d="M383.257 244.787c-10.803-16.793-16.538-9.6-13.312 0 8.601 25.421 8.909 115.917-62.745 127.207l-0.051-295.194c0-42.419-44.416-102.4-127.949-102.4-42.419 0-76.8 22.298-76.8 64 0 54.246 49.331 87.040 102.4 87.040 33.997 0 51.2-10.24 51.2-10.24v371.2h51.2c0-68.505 153.242-121.447 76.058-241.613z" />
<glyph unicode="&#xe65b;" glyph-name="beamed-note" d="M435.2 460.8l-0.051-332.8c0-31.821-33.305-76.8-95.949-76.8-31.821 0-57.6 16.717-57.6 48 0 40.678 36.992 65.28 76.8 65.28 11.059 0 19.303-1.51 25.6-3.149v187.75l-179.2-32.589v-239.693h-0.051c0-31.821-33.305-76.8-95.949-76.8-31.821 0-57.6 16.717-57.6 48 0 40.678 36.992 65.28 76.8 65.28 11.059 0 19.303-1.51 25.6-3.149v299.469l281.6 51.2z" />
<glyph unicode="&#xe65c;" glyph-name="bell" d="M375.040 268.493c-58.368 125.619-88.729 173.337-184.089 171.341-33.971-0.691-25.831 24.627-51.738 15.027-25.856-9.6-3.661-23.654-30.131-45.389-74.291-61.005-67.456-117.427-32.999-251.904 14.515-56.653-34.995-59.418-15.411-114.304 14.311-40.038 119.782-56.807 231.040-15.539 111.283 41.293 181.401 123.238 167.091 163.277-19.584 54.912-59.161 24.601-83.763 77.491zM279.654 61.568c-99.379-36.864-181.043-15.207-184.499-5.555-5.939 16.64 32.077 72.089 145.69 114.253s177.024 26.522 183.655 7.962c3.917-10.983-45.44-79.769-144.845-116.659zM247.706 151.014c-51.942-19.277-88.038-41.318-111.437-61.159 16.461-14.95 47.283-18.586 77.978-7.193 39.091 14.464 63.13 47.769 53.632 74.342-0.128 0.333-0.281 0.589-0.409 0.921-6.425-2.099-13.005-4.377-19.763-6.912z" />
<glyph unicode="&#xe65d;" glyph-name="sound" d="M135.987 369.51c-28.723-28.646-154.291-207.744-45.798-316.211 108.441-108.493 287.488 17.101 316.263 45.798 28.697 28.647-8.576 112.512-83.251 187.187-74.726 74.726-158.489 112.026-187.213 83.226zM373.146 124.006c-8.499-8.397-74.112 11.699-137.319 74.957-63.155 63.207-83.353 128.845-74.855 137.293 8.397 8.499 74.087-11.699 137.216-74.905 63.257-63.155 83.405-128.845 74.957-137.344zM395.111 333.261l48.743 48.793c10.010 10.010 10.010 26.189 0 36.199-9.984 10.010-26.189 10.010-36.199 0l-48.743-48.793c-10.010-10.010-10.010-26.214 0-36.199 9.984-9.984 26.189-9.984 36.199 0zM284.774 389.12c12.365-6.861 27.93-2.432 34.816 9.933l27.827 49.305c6.861 12.365 2.432 27.93-9.933 34.816-12.339 6.887-27.93 2.432-34.816-9.933l-27.827-49.305c-6.861-12.39-2.406-27.981 9.933-34.816zM508.723 311.911c-6.835 12.365-22.451 16.819-34.816 9.933l-49.664-27.161c-12.365-6.861-16.819-22.477-9.933-34.816 6.861-12.365 22.451-16.819 34.816-9.933l49.664 27.162c12.365 6.886 16.819 22.451 9.933 34.816z" />
<glyph unicode="&#xe65e;" glyph-name="sound-mute" d="M363.546 251.034c35.558-48.205 46.541-90.035 39.911-96.691-6.656-6.605-48.461 4.352-96.717 39.911l-141.465-141.491c107.162-47.053 246.451 51.661 271.488 76.697 23.68 23.603 2.483 84.711-47.514 147.303l-25.702-25.728zM221.875 283.111c-28.135 42.445-36.633 77.389-30.566 83.456 5.965 5.99 40.96-2.457 83.379-30.643l26.189 26.24c-57.959 42.855-112.512 59.75-134.579 37.606-23.757-23.705-113.869-150.451-82.713-254.899l138.291 138.24zM474.137 448.563c-9.984 10.010-26.189 10.010-36.199 0l-400.103-400.128c-10.009-10.010-10.009-26.214 0-36.199 10.010-10.010 26.189-10.010 36.198 0l400.102 400.128c10.010 10.009 10.010 26.214 0 36.198z" />
<glyph unicode="&#xe65f;" glyph-name="water" d="M252.979 253.619c-13.082-105.344-79.898-124.083-79.898-197.325 0-45.209 37.965-81.894 82.918-81.894s82.893 36.711 82.893 81.894c0 73.241-66.816 91.981-79.897 197.325-0.409 3.149-5.607 3.149-6.016 0zM99.405 484.019c-13.082-105.344-79.897-124.058-79.897-197.325 0-45.184 37.939-81.895 82.893-81.895s82.893 36.711 82.893 81.894c0 73.242-66.816 91.981-79.897 197.325-0.384 3.149-5.606 3.149-5.99 0zM406.605 484.019c-13.082-105.344-79.897-124.083-79.897-197.325 0-45.184 37.939-81.895 82.893-81.895s82.893 36.711 82.893 81.894c0 73.242-66.816 91.981-79.897 197.325-0.409 3.149-5.606 3.149-5.99 0z" />
<glyph unicode="&#xe660;" glyph-name="check" d="M212.327 51.251c-11.136 0-21.683 5.197-28.441 14.157l-91.469 120.858c-11.904 15.693-8.806 38.042 6.912 49.946 15.744 11.955 38.093 8.806 49.997-6.912l60.185-79.463 151.321 242.995c10.419 16.691 32.435 21.811 49.178 11.392 16.717-10.394 21.863-32.41 11.418-49.152l-178.791-286.976c-6.195-10.010-16.922-16.256-28.672-16.793-0.563-0.051-1.075-0.051-1.638-0.051z" />
<glyph unicode="&#xe661;" glyph-name="cross" d="M367.309 106.265c-12.007-12.007-31.462-12.007-43.443 0l-67.865 77.568-67.865-77.543c-12.006-12.007-31.463-12.007-43.443 0-12.006 12.007-12.006 31.462 0 43.443l70.605 80.64-70.63 80.691c-12.006 12.006-12.006 31.437 0 43.443s31.437 12.007 43.443 0l67.891-77.593 67.865 77.593c12.007 12.007 31.437 12.007 43.443 0s12.007-31.462 0-43.443l-70.605-80.691 70.605-80.64c12.007-12.007 12.007-31.462 0-43.469z" />
<glyph unicode="&#xe662;" glyph-name="minus" d="M409.6 230.4c0-14.157-1.229-25.6-15.385-25.6h-276.429c-14.131 0-15.386 11.443-15.386 25.6s1.254 25.6 15.386 25.6h276.454c14.131 0 15.36-11.443 15.36-25.6z" />
<glyph unicode="&#xe663;" glyph-name="plus" d="M409.6 230.4c0-14.157-1.229-25.6-15.385-25.6h-112.615v-112.615c0-14.131-11.443-15.385-25.6-15.385s-25.6 1.255-25.6 15.385v112.615h-112.615c-14.131 0-15.385 11.443-15.385 25.6s1.254 25.6 15.386 25.6h112.615v112.615c0 14.157 11.443 15.385 25.6 15.385s25.6-1.229 25.6-15.385v-112.615h112.615c14.157 0 15.385-11.443 15.385-25.6z" />
<glyph unicode="&#xe664;" glyph-name="circle-with-cross" d="M256 445.44c-118.758 0-215.040-96.281-215.040-215.040s96.281-215.040 215.040-215.040 215.040 96.281 215.040 215.040c0 118.758-96.281 215.040-215.040 215.040zM378.599 152.038l-44.262-44.262-78.336 78.362-78.362-78.336-44.263 44.262 78.387 78.336-78.362 78.362 44.263 44.237 78.336-78.336 78.361 78.362 44.262-44.262-78.387-78.362 78.361-78.362z" />
<glyph unicode="&#xe665;" glyph-name="circle-with-minus" d="M256 445.44c-118.758 0-215.040-96.281-215.040-215.040s96.281-215.040 215.040-215.040 215.040 96.281 215.040 215.040c0 118.758-96.281 215.040-215.040 215.040zM384 204.8h-256v51.2h256v-51.2z" />
<glyph unicode="&#xe666;" glyph-name="circle-with-plus" d="M256 445.44c-118.758 0-215.040-96.281-215.040-215.040s96.281-215.040 215.040-215.040 215.040 96.281 215.040 215.040c0 118.758-96.281 215.040-215.040 215.040zM384 204.8h-102.4v-102.4h-51.2v102.4h-102.4v51.2h102.4v102.4h51.2v-102.4h102.4v-51.2z" />
<glyph unicode="&#xe667;" glyph-name="squared-cross" d="M409.6 435.2h-307.2c-28.16 0-51.2-23.040-51.2-51.2v-307.2c0-28.16 23.040-51.2 51.2-51.2h307.2c28.16 0 51.2 23.040 51.2 51.2v307.2c0 28.16-23.040 51.2-51.2 51.2zM334.361 107.801l-78.362 78.336-78.362-78.336-44.262 44.237 78.362 78.362-78.336 78.362 44.262 44.262 78.336-78.361 78.31 78.361 44.262-44.262-78.31-78.362 78.336-78.362-44.237-44.237z" />
<glyph unicode="&#xe668;" glyph-name="squared-minus" d="M409.6 435.2h-307.2c-28.16 0-51.2-23.040-51.2-51.2v-307.2c0-28.16 23.040-51.2 51.2-51.2h307.2c28.16 0 51.2 23.040 51.2 51.2v307.2c0 28.16-23.040 51.2-51.2 51.2zM384 204.8h-256v51.2h256v-51.2z" />
<glyph unicode="&#xe669;" glyph-name="squared-plus" d="M409.6 435.2h-307.2c-28.16 0-51.2-23.040-51.2-51.2v-307.2c0-28.16 23.040-51.2 51.2-51.2h307.2c28.16 0 51.2 23.040 51.2 51.2v307.2c0 28.16-23.040 51.2-51.2 51.2zM384 204.8h-102.4v-102.4h-51.2v102.4h-102.4v51.2h102.4v102.4h51.2v-102.4h102.4v-51.2z" />
<glyph unicode="&#xe66a;" glyph-name="block" d="M256 476.16c-135.757 0-245.786-110.029-245.786-245.76 0-135.757 110.029-245.786 245.786-245.786 135.706 0 245.76 110.029 245.76 245.786 0 135.731-110.055 245.76-245.76 245.76zM61.414 230.4c0 107.443 87.091 194.56 194.56 194.56 46.823 0 89.754-16.563 123.315-44.109l-273.767-273.767c-27.546 33.587-44.109 76.493-44.109 123.315zM255.975 35.865c-46.797 0-89.728 16.538-123.264 44.083l273.767 273.741c27.52-33.587 44.083-76.467 44.083-123.289 0-107.443-87.142-194.535-194.585-194.535z" />
<glyph unicode="&#xe66b;" glyph-name="ccw" d="M17.536 230.4h60.723v5.248c2.765 113.511 95.335 204.697 209.126 204.697 115.584 0 209.255-94.003 209.255-209.945s-93.671-209.895-209.255-209.895c-48.589 0-93.312 16.64-128.845 44.493l35.994 38.502c26.010-19.149 58.112-30.541 92.851-30.541 86.682 0 156.953 70.502 156.953 157.44s-70.272 157.44-156.953 157.44c-84.915 0-154.061-67.661-156.8-152.192v-5.248h68.403l-89.447-99.687-92.007 99.687z" />
<glyph unicode="&#xe66c;" glyph-name="cw" d="M494.464 230.4h-60.723v5.248c-2.765 113.511-95.334 204.697-209.126 204.697-115.584 0-209.255-94.003-209.255-209.945s93.671-209.895 209.255-209.895c48.589 0 93.312 16.64 128.845 44.493l-35.993 38.502c-26.010-19.149-58.112-30.541-92.851-30.541-86.681 0-156.953 70.502-156.953 157.44s70.272 157.44 156.953 157.44c84.915 0 154.061-67.661 156.8-152.192v-5.248h-68.403l89.447-99.687 92.007 99.687z" />
<glyph unicode="&#xe66d;" glyph-name="cycle" d="M141.209 122.265c-57.907 62.259-56.883 159.846 3.277 220.442 24.627 24.807 55.399 39.603 87.399 44.442l-1.767 53.171c-44.928-5.453-88.371-25.497-122.803-60.185-80.615-81.152-81.587-212.199-3.149-295.194l-44.569-44.851 141.056-7.705-0.384 149.351-59.059-59.469zM311.373 428.416l0.384-149.351 59.059 59.443c57.907-62.311 56.883-159.898-3.277-220.442-24.601-24.807-55.399-39.603-87.399-44.442l1.767-53.145c44.928 5.453 88.371 25.498 122.829 60.16 80.589 81.203 81.561 212.25 3.123 295.193l44.57 44.903-141.056 7.68z" />
<glyph unicode="&#xe66e;" glyph-name="credit-card" d="M460.8 409.6h-409.6c-28.186 0-51.2-23.040-51.2-51.2v-256c0-28.16 23.015-51.2 51.2-51.2h409.6c28.16 0 51.2 23.040 51.2 51.2v256c0 28.16-23.040 51.2-51.2 51.2zM460.8 102.4h-409.6v153.6h409.6v-153.6zM460.8 332.8h-409.6v25.6h409.6v-25.6zM102.4 202.24v-15.36h15.36v15.36h-15.36zM194.56 171.546v-15.385h30.72v15.385h15.36v15.36h15.36v15.36h-30.72v-15.36h-15.386v-15.36h-15.334zM256 156.16v15.385h-15.386v-15.385h15.386zM179.2 156.16v15.385h-30.72v-15.385h30.72zM194.56 186.905h15.36v15.36h-30.72v-30.695h15.36v15.334zM133.095 171.546h15.386v15.36h15.36v15.36h-30.72v-15.36h-15.36v-15.36h-15.36v-15.385h30.695v15.385z" />
<glyph unicode="&#xe66f;" glyph-name="trash" d="M86.758 304.307l28.186-279.245c1.561-11.801 58.547-50.611 141.056-50.663 82.56 0.051 139.546 38.861 141.082 50.663l28.211 279.245c-43.111-24.115-107.546-35.507-169.293-35.507-61.696 0-126.157 11.392-169.242 35.507zM337.101 447.744l-21.99 24.345c-8.499 12.109-17.715 14.31-35.661 14.31h-46.874c-17.92 0-27.161-2.201-35.635-14.31l-21.99-24.345c-65.792-11.495-113.51-41.984-113.51-64.487v-4.352c0-39.603 87.117-71.705 194.56-71.705 107.469 0 194.586 32.103 194.586 71.705v4.352c0 22.502-47.693 52.992-113.485 64.486zM308.992 375.296l-27.392 34.304h-51.2l-27.341-34.304h-43.52c0 0 47.667 56.858 54.042 64.563 4.864 5.888 9.831 8.141 16.281 8.141h52.301c6.477 0 11.443-2.253 16.307-8.141 6.349-7.705 54.041-64.563 54.041-64.563h-43.52z" />
<glyph unicode="&#xe670;" glyph-name="bucket" d="M281.6 460.8c-125.645 0-204.749-40.755-199.424-75.52 1.536-9.958 5.76-49.792 11.111-83.789-61.568-23.91-81.971-62.694-79.232-94.31 3.251-37.401 36.889-77.44 110.797-84.352 42.189-3.942 92.953 19.2 125.85 58.752-3.123 5.299-4.941 11.52-4.941 18.099 0 19.815 16.051 35.84 35.84 35.84 19.815 0 35.84-16.051 35.84-35.84 0-19.507-15.616-35.353-35.046-35.789-39.142-50.509-98.765-80.999-155.238-77.44 1.305-8.295 1.792-24.243 2.458-28.493 2.304-14.822 60.083-57.856 151.987-57.959 91.904 0.103 149.683 43.136 152.013 57.933 2.253 14.771 42.010 292.070 47.411 327.347 5.325 34.765-73.805 75.52-199.424 75.52zM49.741 210.304c-1.408 16.461 11.648 38.349 49.254 54.759 5.401-34.304 11.29-71.603 16.461-104.295-41.063 8.013-63.949 29.414-65.715 49.536zM281.6 332.186c-91.904 0.051-157.107 34.15-157.107 46.899-0.051 12.646 65.203 45.824 157.107 45.773 91.904 0.051 157.159-33.127 157.107-45.773 0-12.749-65.203-46.848-157.107-46.899z" />
<glyph unicode="&#xe671;" glyph-name="cup" d="M256 460.8c-109.543 0-177.664-36.096-173.952-65.408l36.915-344.755c1.485-11.776 56.857-50.586 137.037-50.637 80.154 0.051 135.552 38.861 136.986 50.663l36.915 344.755c3.712 29.286-64.358 65.382-173.901 65.382zM256 350.951c-80.179 0.051-137.037 28.595-137.037 39.296-0.025 10.599 56.883 39.194 137.037 39.143 80.154 0.051 137.063-28.544 136.986-39.143 0-10.701-56.832-39.245-136.986-39.296z" />
<glyph unicode="&#xe672;" glyph-name="document" d="M409.6 460.8h-307.2c-14.157 0-25.6-11.443-25.6-25.6v-409.6c0-14.131 11.443-25.6 25.6-25.6h307.2c14.157 0 25.6 11.469 25.6 25.6v409.6c0 14.131-11.443 25.6-25.6 25.6zM384 51.2h-256v358.4h256v-358.4z" />
<glyph unicode="&#xe673;" glyph-name="documents" d="M496.589 296.576l-190.566 51.097-33.357 124.442c-2.791 10.393-13.952 16.435-24.909 13.542l-232.345-62.259c-10.957-2.918-17.561-13.773-14.771-24.167l82.688-308.505c2.79-10.394 13.927-16.461 24.858-13.491l92.493 24.755-12.595-47.053c-2.791-10.394 3.815-21.248 14.771-24.141l207.616-55.654c10.957-2.944 22.067 3.098 24.883 13.543l76.032 283.751c2.765 10.393-3.84 21.248-14.797 24.141zM41.805 393.447l200.448 53.657 74.189-276.941-200.448-53.658-74.189 276.941zM401.357 13.747l-174.439 47.693 13.721 51.251 99.865 26.803c10.957 2.893 17.613 13.747 14.797 24.141l-38.605 144.051 152.243-41.753-67.584-252.185z" />
<glyph unicode="&#xe674;" glyph-name="drop" d="M261.197 472.038c-0.691 5.504-9.728 5.504-10.393 0-22.605-181.939-138.189-219.443-138.189-345.907 0-78.157 65.638-141.491 143.385-141.491 77.721 0 143.36 63.36 143.36 141.491 0 126.464-115.558 163.968-138.163 345.907zM239.36 270.899c-1.511-5.606-3.149-11.366-4.839-17.357-10.266-36.455-21.913-77.799-21.913-125.594 0-25.907-15.309-35.097-29.594-35.097-16.358 0-29.594 13.389-29.594 29.849 0 56.499 27.187 93.415 51.2 125.952 7.552 10.189 14.643 19.84 20.403 29.44 2.637 4.403 9.728 4.199 12.953-0.154 1.511-2.048 2.023-4.659 1.382-7.040z" />
<glyph unicode="&#xe675;" glyph-name="edit" d="M449.562 423.962c-36.915 36.941-64.64 31.411-64.64 31.411l-328.346-328.32-25.856-121.907 121.933 25.856 328.346 328.269c-0.026 0 5.529 27.725-31.437 64.691zM145.408 45.645l-41.575-8.96c-3.993 7.501-8.832 15.002-17.664 23.859-8.858 8.858-16.359 13.645-23.859 17.69l8.96 41.549 12.032 12.007c0 0 22.605-0.461 48.154-26.010 25.523-25.498 26.010-48.154 26.010-48.154l-12.058-11.981z" />
<glyph unicode="&#xe676;" glyph-name="brush" d="M70.733 139.187c-38.784-38.093-6.016-77.209-57.523-135.142-23.245-26.189 95.693-18.202 154.599 39.706 25.011 24.601 17.946 60.39-8.857 86.759-26.803 26.317-63.232 33.28-88.218 8.678zM500.199 469.529c-19.865 19.559-240.103-156.902-305.639-221.337-32.537-32-43.392-49.152-53.351-61.952-4.352-5.606 1.408-7.296 3.942-8.601 12.903-6.605 21.913-12.697 33.561-24.141 11.673-11.443 17.894-20.301 24.55-32.998 1.357-2.509 3.097-8.141 8.755-3.891 13.056 9.805 30.489 20.505 63.027 52.454 65.561 64.41 245.069 280.935 225.152 300.467z" />
<glyph unicode="&#xe677;" glyph-name="palette" d="M402.944 419.635c-90.317 30.361-180.889 24.601-274.432-32.615-73.037-44.621-120.781-155.545-105.037-235.059 18.637-93.978 111.386-153.472 236.621-119.065 135.040 37.094 167.654 116.377 163.303 136.55s-68.224 42.291-43.981 89.549c30.413 59.213 80.103 29.415 101.939 41.523 21.888 12.083 13.798 88.115-78.413 119.117zM309.606 145.561c-20.429-5.581-41.549 6.553-47.181 27.111-5.658 20.608 6.349 41.753 26.777 47.334s41.523-6.502 47.181-27.111c5.632-20.557-6.349-41.754-26.777-47.334z" />
<glyph unicode="&#xe678;" glyph-name="code" d="M146.406 108.8c-6.042 0-12.135 2.125-16.999 6.451l-129.536 115.149 136.73 121.549c10.547 9.344 26.726 8.448 36.121-2.125s8.448-26.752-2.125-36.147l-93.671-83.277 86.477-76.851c10.573-9.395 11.52-25.575 2.125-36.147-5.043-5.709-12.083-8.601-19.123-8.601zM375.399 108.851l136.73 121.549-129.536 115.149c-10.573 9.395-26.752 8.448-36.122-2.125-9.395-10.573-8.448-26.752 2.125-36.147l86.477-76.877-93.671-83.251c-10.573-9.395-11.52-25.575-2.125-36.147 5.043-5.709 12.083-8.601 19.123-8.601 6.041 0 12.135 2.125 16.998 6.451zM255.642 72.576l51.2 307.2c2.329 13.952-7.091 27.136-21.043 29.466-14.003 2.355-27.161-7.091-29.44-21.043l-51.2-307.2c-2.329-13.952 7.091-27.136 21.043-29.466 1.434-0.231 2.816-0.333 4.224-0.333 12.288 0 23.142 8.883 25.216 21.376z" />
<glyph unicode="&#xe679;" glyph-name="erase" d="M460.8 409.6h-244.583c-11.264 0-27.417-6.042-35.891-13.44l-173.977-152.269c-8.473-7.399-8.473-19.558 0-26.957l173.977-152.243c8.474-7.399 24.627-13.491 35.891-13.491h244.583c28.16 0 51.2 23.040 51.2 51.2v256c0 28.16-23.040 51.2-51.2 51.2zM388.889 128l-65.459 65.459-65.433-65.459-36.941 36.941 65.434 65.459-65.433 65.459 36.941 36.941 65.459-65.408 65.408 65.408 36.966-36.941-65.433-65.459 65.459-65.408-36.966-36.992z" />
<glyph unicode="&#xe67a;" glyph-name="export" d="M384 102.4h-332.8v230.4h66.432c0 0 17.639 22.938 55.552 51.2h-147.584c-14.157 0-25.6-11.495-25.6-25.6v-281.6c0-14.157 11.443-25.6 25.6-25.6h384c14.157 0 25.6 11.443 25.6 25.6v95.897l-51.2-42.112v-28.185zM342.041 280.32v-90.906l169.959 133.146-169.958 127.974v-80.154c-206.362 0-206.362-203.981-206.362-203.981 58.419 95.949 94.362 113.92 206.362 113.92z" />
<glyph unicode="&#xe67b;" glyph-name="eye" d="M256 373.76c-167.962 0-256-123.699-256-143.36 0-19.61 88.038-143.36 256-143.36 167.936 0 256 123.75 256 143.36 0 19.661-88.064 143.36-256 143.36zM256 120.141c-62.848 0-113.792 49.357-113.792 110.259s50.944 110.311 113.792 110.311c62.848 0 113.767-49.408 113.767-110.311s-50.918-110.259-113.767-110.259zM256 230.4c-10.419 11.443 16.973 55.143 0 55.143-31.437 0-56.909-24.704-56.909-55.143s25.472-55.143 56.909-55.143c31.411 0 56.909 24.704 56.909 55.143 0 14.003-48.051-9.703-56.909 0z" />
<glyph unicode="&#xe67c;" glyph-name="popup" d="M409.6 435.2h-205.338c-28.135 0-50.662-22.528-50.662-50.688v-205.312c0-28.16 23.040-51.2 51.2-51.2h204.8c28.16 0 51.2 23.040 51.2 51.2v204.8c0 28.16-23.040 51.2-51.2 51.2zM409.6 179.2h-204.8v204.8h204.8v-204.8zM102.4 230.4h-51.2v-153.6c0-28.16 23.040-51.2 51.2-51.2h153.6v51.2h-153.6v153.6z" />
<glyph unicode="&#xe67d;" glyph-name="feather" d="M108.903-14.515c7.859 25.139 19.712 60.519 35.609 111.667 69.299 10.983 97.971-8.729 141.978 69.863-35.712-10.931-78.771 20.275-76.467 33.817 2.329 13.517 100.173-9.753 164.25 81.229-80.768-17.817-106.599 21.402-96.179 27.315 24.038 13.67 95.385 5.683 133.427 42.726 19.61 19.072 28.8 65.433 20.813 81.971-9.575 19.994-67.993 49.818-100.198 47.002-32.205-2.791-82.714-122.624-97.715-121.702-14.951 0.947-17.997 53.709 8.167 102.733-27.571-12.211-78.106-50.151-93.952-82.585-29.517-60.339 2.765-198.81-7.577-203.725-10.368-4.941-45.209 63.514-55.603 94.567-14.208-47.591-14.541-95.257 26.957-158.567-15.642-41.549-24.192-89.37-25.498-113.69-0.615-19.43 18.535-23.603 21.99-12.621z" />
<glyph unicode="&#xe67e;" glyph-name="flag" d="M484.505 343.45c-239.078-347.341-157.235 6.656-359.347-162.739l45.952-180.71h-51.686l-93.824 368.896 47.36 16.998c226.535 165.657 108.237-148.992 400.307-32.103 9.318 3.763 16.768-2.304 11.238-10.342z" />
<glyph unicode="&#xe67f;" glyph-name="flash" d="M174.157 0.051c-4.966 3.251 80.717 183.296 77.773 191.207-2.97 7.911-93.824 36.762-98.253 50.663-4.454 13.901 179.379 222.899 184.217 218.854 4.813-4.045-80.103-185.293-77.798-191.207 2.329-5.888 95.437-35.942 98.253-50.663 2.841-14.72-179.251-222.106-184.192-218.855z" />
<glyph unicode="&#xe680;" glyph-name="flashlight" d="M438.144 412.57c-42.906 42.906-96.743 58.573-113.894 41.421l-69.017-69.017c-10.47-10.496-19.609-45.542-15.411-80.998l-208.922-208.922c-12.39-12.39-2.355-42.496 22.425-67.303s54.938-34.791 67.302-22.451l208.922 208.947c35.481-4.199 70.528 4.941 80.998 15.386l69.017 69.043c17.152 17.152 1.485 71.014-41.421 113.894zM208.41 203.801c-9.549 9.523-6.425 28.058 6.887 41.395 13.338 13.337 31.898 16.461 41.421 6.912 9.523-9.498 6.425-28.083-6.912-41.395-13.338-13.363-31.872-16.461-41.395-6.912zM381.209 355.635c-33.229 33.203-41.549 77.056-38.605 80 2.944 2.97 45.056-7.091 78.31-40.32 33.229-33.229 43.213-75.418 40.32-78.311-2.867-2.867-46.822 5.376-80.026 38.63z" />
<glyph unicode="&#xe681;" glyph-name="folder" d="M471.168 363.546c-2.841 11.264-16.768 20.454-30.976 20.454h-174.438c-14.183 0-34.048 8.141-44.083 18.099l-15.257 15.053c-10.035 9.959-29.875 18.048-44.058 18.048h-83.328c-14.208 0-27.111-11.443-28.672-25.446l-7.475-76.954h433.433l-5.146 30.745zM496.947 307.2h-481.894c-8.755 0-15.616-7.527-14.771-16.256l23.629-247.526c0.947-10.087 9.447-17.817 19.61-17.817h424.96c10.163 0 18.637 7.731 19.61 17.817l23.629 247.527c0.845 8.729-6.016 16.256-14.771 16.256z" />
<glyph unicode="&#xe682;" glyph-name="archive" d="M357.913 435.2h-203.853c0 0-25.498 0-25.498-25.6h254.848c0 25.6-25.498 25.6-25.498 25.6zM434.381 358.4c0 25.6-25.472 25.6-25.472 25.6h-305.817c0 0-25.472 0-25.472-25.6v-25.6h356.761v25.6zM485.325 332.8c-15.053 15.155-15.053 15.155-15.053 15.155v-40.755h-428.544v40.755c0 0 0 0-15.078-15.155s-25.881-19.2-19.814-51.2c6.041-31.898 35.303-206.746 39.654-230.4 4.761-25.959 31.155-25.6 31.155-25.6h356.762c0 0 26.368-0.358 31.155 25.6 4.352 23.654 33.587 198.503 39.654 230.4 6.016 32-4.787 36.045-19.891 51.2zM358.4 179.277c0-14.183-11.495-25.677-25.677-25.677h-153.446c-14.183 0-25.677 11.495-25.677 25.677v51.123h25.6v-51.2h153.6v51.2h25.6v-51.123z" />
<glyph unicode="&#xe683;" glyph-name="box" d="M471.014 435.2h-430.055c-8.499 0-15.36-6.835-15.36-15.36v-61.44h460.8v61.44c0 8.525-6.912 15.36-15.385 15.36zM51.2 61.44c0-19.712 16.103-35.84 35.814-35.84h337.92c19.712 0 35.84 16.154 35.84 35.84v271.36h-409.575v-271.36zM179.2 281.6h153.6v-51.2h-153.6v51.2z" />
<glyph unicode="&#xe684;" glyph-name="briefcase" d="M230.4 230.4h51.2v-51.2h230.4c0 0-3.815 114.151-5.12 149.863-1.28 33.946-13.44 54.938-51.2 54.938h-82.125c-12.723 24.013-26.419 49.792-30.643 57.754-8.474 15.949-11.366 19.046-30.183 19.046h-113.485c-18.816 0-21.683-3.097-30.183-19.046-4.224-7.962-17.92-33.741-30.618-57.754h-82.15c-37.785 0-49.792-20.992-51.2-54.938-1.383-33.971-5.095-149.863-5.095-149.863h230.4v51.2zM195.815 411.75c5.888 11.059 7.885 13.209 20.915 13.209h78.515c13.031 0 15.053-2.15 20.889-13.209 2.202-4.096 8.141-15.36 14.72-27.75h-149.76c6.579 12.39 12.518 23.654 14.72 27.75zM281.6 102.4h-51.2v51.2h-217.6c0 0 3.175-46.003 5.095-85.043 0.794-16.205 5.581-42.957 46.080-42.957h384.026c40.499 0 45.184 26.803 46.080 42.957 2.227 40.141 5.12 85.043 5.12 85.043h-217.6v-51.2z" />
<glyph unicode="&#xe685;" glyph-name="suitcase" d="M460.8 384h-25.6v-384h25.6c28.16 0 51.2 23.040 51.2 51.2v281.6c0 28.16-23.040 51.2-51.2 51.2zM0 332.8v-281.6c0-28.16 23.015-51.2 51.2-51.2h25.6v384h-25.6c-28.186 0-51.2-23.040-51.2-51.2zM345.6 437.606c-17.433 8.090-48.358 23.194-90.087 23.194-41.805 0-71.68-15.104-89.113-23.194v-53.606h-64v-384h307.2v384h-64v53.607zM307.2 384h-102.4v34.202c13.671 5.888 27.597 11.904 50.714 11.904 23.091 0 38.042-5.99 51.686-11.904v-34.202z" />
<glyph unicode="&#xe686;" glyph-name="globe" d="M256 476.16c-135.552 0-245.786-110.259-245.786-245.76s110.234-245.76 245.786-245.76c135.501 0 245.76 110.259 245.76 245.76s-110.259 245.76-245.76 245.76zM465.613 230.4c0-47.949-16.281-92.16-43.418-127.488-7.68 5.99-15.846 22.195-8.166 38.989 7.757 16.896 9.779 56.013 7.987 71.245-1.69 15.207-9.6 51.84-31.079 52.199-21.453 0.307-36.173 7.399-48.921 32.845-26.445 52.941 49.639 63.104 23.194 92.391-7.399 8.243-45.645-33.843-51.251 22.247-0.358 4.019 3.456 10.035 8.601 16.281 83.046-27.904 143.053-106.419 143.053-198.707zM227.2 437.939c-5.018-9.779-18.253-13.747-26.291-21.095-17.511-15.846-25.037-13.645-34.458-28.851-9.498-15.207-40.115-37.095-40.115-48.103s15.463-23.962 23.194-21.453c7.731 2.56 28.135 2.407 40.115-1.792 12.006-4.25 100.198-8.499 72.089-83.047-8.909-23.706-47.949-19.712-58.343-58.957-1.561-5.76-6.963-30.361-7.296-38.4-0.64-12.442 8.806-59.341-3.2-59.341-12.058 0-44.493 41.959-44.493 49.562s-8.397 34.253-8.397 57.088c0 22.81-38.861 22.451-38.861 52.787 0 27.341 21.069 40.96 16.333 54.093-4.633 13.056-41.651 13.491-57.088 15.104 26.957 69.913 90.368 121.805 166.81 132.403zM190.054 31.488c12.595 6.656 13.875 15.257 25.293 15.693 13.056 0.589 23.68 5.094 38.4 8.346 13.056 2.841 36.429 16.103 56.986 17.792 17.357 1.408 51.584-0.896 60.8-17.639-33.152-22.041-72.909-34.893-115.558-34.893-23.014 0-45.184 3.815-65.92 10.701z" />
<glyph unicode="&#xe687;" glyph-name="network" d="M135.014 309.376c5.12 0 10.087-0.742 14.745-2.202 17.664 19.789 37.248 37.811 58.445 53.76-0.896 3.738-1.382 7.654-1.382 11.648 0 5.555 0.922 10.905 2.611 15.898-23.782 16.998-49.587 31.309-77.082 42.342-25.728-15.898-48.179-36.634-66.099-60.953 13.287-23.552 29.081-45.491 47.053-65.459 6.553 3.175 13.901 4.966 21.709 4.966zM84.889 259.277c0 7.040 1.485 13.747 4.070 19.789-16.077 17.715-30.643 36.761-43.392 57.063-16-31.795-25.088-67.712-25.088-105.754 0-44.007 12.135-85.197 33.152-120.448 7.526 42.342 21.785 82.406 41.472 119.091-6.4 8.397-10.215 18.918-10.215 30.259zM256.921 422.682c13.235 0 25.216-5.146 34.202-13.543 26.137 11.238 53.657 19.891 82.304 25.395-34.586 19.942-74.675 31.385-117.427 31.385-29.159 0-57.063-5.35-82.841-15.053 20.454-10.112 39.962-21.888 58.291-35.2 7.475 4.454 16.154 7.014 25.472 7.014zM331.827 186.675c3.123 6.502 7.552 12.262 13.031 16.793-14.797 45.491-38.221 87.143-68.403 122.957-5.99-2.56-12.595-3.942-19.558-3.942-10.88 0-20.889 3.507-29.107 9.344-18.176-13.798-34.995-29.261-50.279-46.157 4.813-7.654 7.603-16.691 7.603-26.393 0-5.197-0.793-10.24-2.304-15.001 43.955-29.338 94.567-49.511 149.017-57.6zM396.825 119.014c0.666-9.498 1.050-19.046 1.050-28.697 0-16.998-1.075-33.741-3.123-50.202 39.936 29.159 70.349 70.605 85.683 118.759-18.176-4.403-36.813-7.552-55.834-9.344-4.429-13.747-14.643-24.806-27.776-30.515zM320.103 152.986c-58.163 9.651-112.051 31.846-158.976 63.591-7.629-4.659-16.563-7.399-26.137-7.399-3.559 0-6.963 0.358-10.291 1.050-22.451-42.547-36.813-90.035-40.934-140.391 22.425-24.064 49.766-43.443 80.512-56.448 38.195 58.701 91.546 107.238 155.827 139.597zM414.106 404.966c-37.76-3.661-73.805-13.159-107.341-27.341 0.154-1.689 0.256-3.353 0.256-5.043 0-7.91-1.894-15.36-5.146-21.99 33.562-39.399 59.571-85.248 76.007-135.45 20.403-0.409 37.811-12.851 45.312-30.592 22.682 2.304 44.749 6.656 65.997 12.902 1.536 10.752 2.355 21.76 2.355 32.947-0.026 69.222-29.875 131.482-77.44 174.566zM345.318 126.233c-60.007-28.109-110.183-71.399-146.509-124.314 18.304-4.582 37.453-7.040 57.191-7.040 35.507 0 69.171 7.911 99.379 21.99 4.864 23.757 7.424 48.307 7.424 73.447 0 9.088-0.409 18.099-1.101 27.008-6.041 1.945-11.597 4.941-16.384 8.909z" />
<glyph unicode="&#xe688;" glyph-name="graduation-cap" d="M84.531 173.107c11.879-48.103 26.983-69.145 77.363-91.187 50.406-22.016 74.343-46.080 94.106-46.080 19.738 0 42.189 21.043 92.57 43.111 50.406 22.041 36.941 28.749 48.819 76.851l-141.389-68.762-171.469 86.067zM499.481 298.599l-213.12 119.347c-16.691 9.344-44.032 9.344-60.723 0l-213.145-119.347c-16.691-9.344-16.691-24.653 0-33.997l213.12-119.347c16.691-9.344 44.032-9.344 60.723 0l137.779 77.159-149.401 34.995c-5.76-1.408-12.083-2.201-18.714-2.201-26.931 0-48.743 12.953-48.743 28.953 0 16.051 21.837 29.005 48.743 29.005 20.889 0 38.656-7.859 45.568-18.791l158.259-51.942 39.654 22.195c16.665 9.319 16.665 24.627 0 33.971zM434.355 72.448c-1.664-9.856 32.845-26.061 36.121 2.739 14.822 129.843-10.649 167.194-10.649 167.194l-35.712-19.994c0 0.026 30.285-28.8 10.24-149.939z" />
<glyph unicode="&#xe689;" glyph-name="thumbs-down" d="M162.611 162.867c3.405-9.113-90.599-93.031-35.763-161.049 12.826-15.897 56.345 76.16 118.144 117.811 34.073 23.014 113.408 71.962 113.408 99.021v175.155c0 32.538-125.798 66.995-221.389 66.995-35.047 0-85.811-219.546-85.811-254.439 0-34.995 108.058-34.381 111.411-43.495zM384 165.299c16.845 0 76.8 10.24 76.8 79.949v124.109c0 69.658-59.955 77.338-76.8 77.338-16.819 0 25.6-14.643 25.6-57.856v-163.149c0-45.261-42.419-60.391-25.6-60.391z" />
<glyph unicode="&#xe68a;" glyph-name="thumbs-up" d="M349.389 297.933c-3.405 9.088 90.599 93.030 35.789 161.049-12.825 15.898-56.346-76.16-118.144-117.837-34.099-22.989-113.433-71.936-113.433-98.995v-175.155c0-32.538 125.798-66.995 221.389-66.995 35.046 0 85.811 219.546 85.811 254.413 0 35.021-108.058 34.407-111.411 43.52zM128 295.501c-16.845 0-76.8-10.24-76.8-79.949v-124.109c0-69.658 59.955-77.337 76.8-77.337 16.819 0-25.6 14.643-25.6 57.856v163.149c0 45.261 42.419 60.391 25.6 60.391z" />
<glyph unicode="&#xe68b;" glyph-name="heart-outlined" d="M440.064 380.006c-42.803 39.296-112.205 39.296-155.008 0l-29.056-26.649-29.082 26.649c-42.803 39.296-112.179 39.296-154.982 0-48.154-44.185-48.154-115.686 0-159.872l184.064-168.935 184.064 168.935c48.128 44.185 48.128 115.712 0 159.872zM412.774 246.4l-156.774-146.304-156.8 146.304c-15.795 14.515-21.913 33.459-21.913 53.607s3.533 36.685 19.353 51.174c13.952 12.826 32.717 19.891 52.813 19.891 20.071 0 38.835-12.185 52.787-25.037l53.76-46.72 53.734 46.745c13.978 12.851 32.717 25.037 52.813 25.037s38.861-7.065 52.813-19.891c15.821-14.489 19.328-31.027 19.328-51.174s-6.093-39.117-21.913-53.632z" />
<glyph unicode="&#xe68c;" glyph-name="heart" d="M440.064 380.032c-42.803 39.27-112.205 39.27-155.008 0l-29.056-26.675-29.082 26.675c-42.803 39.271-112.179 39.271-154.982 0-48.154-44.211-48.154-115.712 0-159.898l184.064-168.935 184.064 168.935c48.128 44.185 48.128 115.712 0 159.898z" />
<glyph unicode="&#xe68d;" glyph-name="star-outlined" d="M481.28 281.037h-164.173l-61.107 172.083-61.159-172.083h-164.147l133.939-101.043-47.898-177.382 139.264 106.342 139.213-106.342-47.846 177.382 133.913 101.043zM256 159.155l-77.159-64 31.821 91.187-72.986 58.88 90.163-2.585 28.16 103.424 28.134-103.424 90.137 2.585-72.986-58.88 31.821-91.187-77.107 64z" />
<glyph unicode="&#xe68e;" glyph-name="star" d="M256 453.12l61.133-172.083h164.147l-133.939-101.069 47.897-177.357-139.238 106.342-139.213-106.342 47.872 177.357-133.965 101.069h164.147l61.159 172.083z" />
<glyph unicode="&#xe68f;" glyph-name="help-with-circle" d="M256 476.16c-135.731 0-245.76-110.029-245.76-245.76s110.029-245.76 245.76-245.76c135.706 0 245.76 110.029 245.76 245.786 0 135.706-110.055 245.734-245.76 245.734zM252.135 87.065h-1.305c-20.019 0.589-34.15 15.36-33.561 35.098 0.563 19.405 15.027 33.51 34.381 33.51l1.178-0.051c20.582-0.589 34.56-15.207 33.971-35.507-0.589-19.456-14.797-33.050-34.662-33.050zM336.384 254.259c-4.711-6.656-15.053-15.001-28.109-25.165l-14.387-9.907c-7.885-6.144-12.647-11.955-14.413-17.613-1.433-4.454-2.099-5.658-2.227-14.745v-2.304h-54.912l0.154 4.659c0.691 19.046 1.152 30.31 9.063 39.603 12.416 14.541 39.808 32.205 40.96 32.947 3.942 2.944 7.245 6.298 9.702 9.907 5.76 7.962 8.294 14.208 8.294 20.301 0 8.55-2.509 16.461-7.501 23.45-4.813 6.809-13.952 10.189-27.161 10.189-13.107 0-22.093-4.147-27.443-12.697-5.53-8.729-8.32-17.92-8.32-27.315v-2.355h-56.602l0.102 2.457c1.459 34.637 13.85 59.597 36.736 74.163 14.413 9.241 32.358 13.927 53.273 13.927 27.341 0 50.483-6.656 68.659-19.763 18.457-13.286 27.801-33.203 27.801-59.161-0.026-14.515-4.608-28.16-13.671-40.576z" />
<glyph unicode="&#xe690;" glyph-name="history" d="M287.411 440.32c-113.817 0-206.362-91.187-209.126-204.672h-62.925l94.183-104.986 94.157 104.986h-73.113c2.765 84.506 71.885 152.192 156.826 152.192 86.682 0 156.928-70.477 156.928-157.44s-70.246-157.44-156.928-157.44c-34.765 0-66.867 11.366-92.877 30.541l-35.993-38.502c35.533-27.878 80.256-44.519 128.87-44.519 115.558 0 209.255 93.978 209.255 209.92-0.026 115.942-93.721 209.92-209.255 209.92zM268.8 343.040v-120.064l76.928-76.928 25.344 25.344-66.432 66.432v105.216h-35.84z" />
<glyph unicode="&#xe691;" glyph-name="help" d="M360.704 429.235c-29.184 21.043-65.843 31.565-109.978 31.565-33.561 0-61.901-7.399-84.915-22.221-36.531-23.194-55.936-62.592-58.291-118.144h84.659c0 16.205 4.736 31.744 14.157 46.797 9.446 15.002 25.472 22.503 48.077 22.503 22.989 0 38.835-6.093 47.463-18.253 8.678-12.211 13.005-25.702 13.005-40.499 0-12.902-6.451-24.704-14.259-35.405-4.275-6.246-9.907-12.006-16.921-17.255 0 0-45.901-29.44-66.048-53.095-11.673-13.696-12.723-34.253-13.773-63.693-0.051-2.099 0.743-6.451 8.064-6.451 7.347 0 59.289 0 65.817 0 6.553 0 7.911 4.839 7.987 7.014 0.461 10.701 1.639 16.205 3.61 22.4 3.687 11.699 13.773 21.888 25.063 30.695l23.296 16.051c21.043 16.41 37.811 29.85 45.235 40.397 12.647 17.305 21.555 38.656 21.555 64-0.026 41.344-14.618 72.499-43.801 93.593zM249.369 104.345c-29.159 0.896-53.222-19.303-54.144-50.944-0.896-31.591 21.965-52.505 51.149-53.351 30.439-0.896 53.862 18.611 54.809 50.253 0.87 31.642-21.351 53.146-51.815 54.041z" />
<glyph unicode="&#xe692;" glyph-name="info-with-circle" d="M256 476.16c-135.757 0-245.786-110.029-245.786-245.76 0-135.757 110.029-245.786 245.786-245.786 135.706 0 245.76 110.029 245.76 245.786 0 135.731-110.055 245.76-245.76 245.76zM278.938 387.43c23.962 0 31.002-13.901 31.002-29.798 0-19.84-15.872-38.195-42.983-38.195-22.681 0-33.485 11.392-32.819 30.259 0 15.897 13.286 37.734 44.8 37.734zM217.549 83.2c-16.384 0-28.339 9.959-16.896 53.606l18.765 77.44c3.251 12.391 3.789 17.357 0 17.357-4.889 0-26.163-8.55-38.707-16.999l-8.166 13.389c39.808 33.255 85.581 52.761 105.165 52.761 16.384 0 19.098-19.353 10.931-49.152l-21.504-81.408c-3.815-14.387-2.176-19.353 1.639-19.353 4.915 0 20.992 5.939 36.813 18.406l9.267-12.442c-38.733-38.707-80.947-53.606-97.305-53.606z" />
<glyph unicode="&#xe693;" glyph-name="info" d="M318.259 486.4c34.304 0 51.456-23.347 51.456-50.099 0-33.408-29.798-64.307-68.582-64.307-32.486 0-51.43 19.2-50.535 50.944 0 26.701 22.554 63.462 67.661 63.462zM212.71-25.6c-27.085 0-46.925 16.691-27.981 90.214l31.078 130.355c5.401 20.839 6.298 29.21 0 29.21-8.115 0-43.238-14.387-64.051-28.595l-13.517 22.528c65.843 55.962 141.594 88.755 174.106 88.755 27.059 0 31.565-32.589 18.048-82.688l-35.61-137.011c-6.298-24.192-3.61-32.538 2.714-32.538 8.115 0 34.739 10.035 60.902 30.899l15.36-20.839c-64.051-65.203-134.016-90.291-161.049-90.291z" />
<glyph unicode="&#xe694;" glyph-name="home" d="M478.003 204.8h-42.803v-153.6c0-11.392-4.966-25.6-25.6-25.6h-102.4v153.6h-102.4v-153.6h-102.4c-20.633 0-25.6 14.208-25.6 25.6v153.6h-42.803c-15.309 0-12.032 8.294-1.536 19.149l205.415 205.619c4.992 5.171 11.546 7.731 18.125 7.987 6.579-0.256 13.133-2.79 18.125-7.987l205.389-205.594c10.522-10.88 13.798-19.175-1.51-19.175z" />
<glyph unicode="&#xe695;" glyph-name="hair-cross" d="M256 476.16c-135.757 0-245.786-110.029-245.786-245.76 0-135.757 110.029-245.786 245.786-245.786 135.706 0 245.76 110.029 245.76 245.786 0 135.731-110.055 245.76-245.76 245.76zM281.6 37.76v115.84h-51.2v-115.84c-86.938 11.418-155.648 80.103-167.091 167.040h115.891v51.2h-115.891c11.443 86.938 80.153 155.622 167.091 167.040v-115.84h51.2v115.84c86.887-11.443 155.597-80.128 167.040-167.040h-115.84v-51.2h115.84c-11.443-86.887-80.154-155.597-167.040-167.040z" />
<glyph unicode="&#xe696;" glyph-name="compass" d="M139.623 113.971c0 0 116.941 16.051 166.861 65.945s65.945 166.861 65.945 166.861-116.966-16.051-166.861-65.946-65.945-166.861-65.945-166.861zM230.835 255.616c20.941 20.941 61.056 35.84 95.463 45.107-9.241-34.355-24.192-74.752-45.056-95.539-13.901-13.952-36.505-13.952-50.406 0-13.952 13.901-13.952 36.48 0 50.432zM256.026 476.16c-135.757 0-245.786-110.029-245.786-245.76 0-135.757 110.029-245.786 245.786-245.786 135.705 0 245.76 110.029 245.76 245.786 0 135.731-110.055 245.76-245.76 245.76zM256 35.84c-107.443 0-194.56 87.091-194.56 194.56 0 107.443 87.091 194.56 194.56 194.56 107.443 0 194.586-87.091 194.586-194.56 0-107.443-87.142-194.56-194.586-194.56z" />
<glyph unicode="&#xe697;" glyph-name="direction" d="M462.336 436.711c-15.002 15.001-29.286 0.845-77.85-22.503-129.92-62.438-356.327-189.337-356.327-189.337l194.535-27.751 27.776-194.534c0 0 126.925 226.381 189.338 356.25 23.347 48.589 37.504 62.874 22.528 77.875zM415.642 386.663l-141.286-262.323-14.361 119.168 155.648 143.155z" />
<glyph unicode="&#xe698;" glyph-name="address" d="M506.854 354.176l-60.8 46.848c-3.456 2.381-8.294 4.505-13.337 6.067-5.069 1.562-10.317 2.509-14.515 2.509h-175.001l20.506-128h154.496c4.199 0 9.447 0.947 14.49 2.509s9.907 3.712 13.337 6.041l60.8 46.899c3.456 2.33 5.171 5.427 5.171 8.551s-1.715 6.221-5.146 8.576zM217.6 460.8h-25.6c-7.065 0-12.8-5.735-12.8-12.8v-89.6h-85.401c-4.249 0-9.472-0.947-14.515-2.534-5.069-1.536-9.907-3.661-13.338-6.042l-60.8-46.848c-3.456-2.33-5.146-5.453-5.146-8.576 0-3.097 1.69-6.195 5.146-8.576l60.8-46.899c3.43-2.329 8.269-4.48 13.338-6.016 5.043-1.561 10.266-2.509 14.515-2.509h85.401v-217.6c0-7.065 5.734-12.8 12.8-12.8h25.6c7.066 0 12.8 5.735 12.8 12.8v435.2c0 7.066-5.734 12.8-12.8 12.8z" />
<glyph unicode="&#xe699;" glyph-name="map" d="M497.843 391.219l-153.6 76.8c-7.193 3.609-15.693 3.609-22.912 0l-144.128-72.064-143.513 47.846c-7.834 2.611-16.384 1.305-23.066-3.533-6.681-4.813-10.624-12.544-10.624-20.762v-332.825c0-9.702 5.479-18.56 14.157-22.887l153.6-76.8c3.609-1.792 7.526-2.714 11.443-2.714s7.859 0.896 11.443 2.714l144.128 72.038 143.514-47.846c7.808-2.56 16.384-1.255 23.065 3.558s10.624 12.544 10.624 20.736v332.851c0.026 9.702-5.453 18.56-14.131 22.887zM204.8 352.486l102.4 51.2v-301.133l-102.4-51.2v301.133zM51.2 384l102.4-34.125v-298.522l-102.4 51.2v281.447zM460.8 70.989l-102.4 34.151v298.547l102.4-51.2v-281.498z" />
<glyph unicode="&#xe69a;" glyph-name="location-pin" d="M256 434.969c-70.707 0-128-57.062-128-127.744 0-122.215 128-281.6 128-281.6s128 159.411 128 281.6c0 70.656-57.293 127.744-128 127.744zM256 236.544c-38.195 0-69.12 30.951-69.12 69.12s30.925 69.12 69.12 69.12c38.144 0 69.094-30.95 69.094-69.12s-30.95-69.12-69.094-69.12z" />
<glyph unicode="&#xe69b;" glyph-name="hour-glass" d="M399.36 369.255c0 54.758 0 60.109 0 60.109 0 20.199-64.205 57.037-143.36 57.037-79.181 0-143.36-36.839-143.36-57.037 0 0 0-5.351 0-60.109 0-54.809 99.251-100.045 99.251-138.855 0-38.759-99.251-83.994-99.251-138.803s0-60.16 0-60.16c0-20.173 64.179-57.037 143.36-57.037 79.155 0 143.36 36.864 143.36 57.063 0 0 0 5.351 0 60.16s-99.251 100.045-99.251 138.803c0 38.784 99.251 84.019 99.251 138.829zM152.089 426.803c17.817 11.238 51.2 27.699 105.319 27.699 54.093 0 102.553-27.699 102.553-27.699 3.635-2.202 17.869-9.805 8.115-15.591-21.453-12.723-63.437-26.112-112.077-26.112s-89.19 14.745-110.695 27.495c-9.754 5.76 6.784 14.208 6.784 14.208zM268.825 230.4c0-30.541 25.498-50.202 52.505-76.442 19.738-19.149 46.745-45.389 46.745-62.336v-33.997c-24.832 12.365-99.123 24.448-99.123 64.103 0 20.045-25.933 20.045-25.933 0 0-39.654-74.291-51.738-99.123-64.103v33.997c0 16.947 27.034 43.213 46.745 62.336 27.008 26.24 52.505 45.901 52.505 76.442s-25.498 50.201-52.505 76.441c-19.738 19.2-46.745 45.44-46.745 62.413l-1.178 25.549c26.266-14.157 67.891-27.597 113.28-27.597 45.363 0 87.194 13.44 113.485 27.597l-1.408-25.549c0-16.947-27.034-43.213-46.745-62.413-26.983-26.24-52.505-45.901-52.505-76.441z" />
<glyph unicode="&#xe69c;" glyph-name="images" d="M438.4 328.448l-52.377 144.256c-3.865 10.649-15.232 16.307-25.319 12.595l-348.109-127.053c-10.086-3.686-15.181-15.283-11.29-25.933l55.194-152.089v81.485c0 36.813 29.389 66.739 65.536 66.739h91.981l109.696 77.005 63.462-77.005h51.226zM492.493 281.6h-370.457c-10.752 0-19.507-8.551-19.507-19.891v-241.152c0.025-11.366 8.781-20.557 19.507-20.557h370.457c10.752 0 19.507 9.19 19.507 20.557v241.152c0 11.341-8.755 19.891-19.507 19.891zM460.8 51.2h-307.2v51.2l50.791 102.861 70.861-87.962 66.509 68.147 85.453 30.848 33.587-88.294v-76.8z" />
<glyph unicode="&#xe69d;" glyph-name="key" d="M452.889 365.44c-12.877 76.211-82.432 127.155-155.366 113.69-72.96-13.44-134.554-72.090-121.677-148.352 2.739-16.41 10.445-42.087 19.533-60.544l-132.48-197.709c-4.889-7.296-7.654-20.454-6.195-29.209l8.525-50.457c1.485-8.755 9.523-14.643 17.92-13.159l38.809 7.194c8.397 1.51 19.046 8.909 23.654 16.358l52.403 84.762 0.461 0.563 35.481 6.553 61.184 99.303c20.096-3.558 48.947-2.355 65.997 0.793 72.909 13.466 104.627 93.952 91.75 170.215zM388.25 326.349c-20.070-29.952-40.55-8.858-69.197 12.16-28.647 20.941-54.656 33.843-34.611 63.795 20.070 29.952 59.546 37.248 88.243 16.256 28.672-20.966 35.609-62.259 15.565-92.211z" />
<glyph unicode="&#xe69e;" glyph-name="keyboard" d="M476.16 384h-440.32c-19.738 0-35.84-16.102-35.84-35.84v-235.52c0-19.687 16.102-35.84 35.815-35.84h440.32c19.712 0 35.84 16.154 35.84 35.84v235.52c0.025 19.738-16.128 35.84-35.815 35.84zM281.6 332.8h51.2v-51.2h-51.2v51.2zM358.4 256v-51.2h-51.2v51.2h51.2zM204.8 332.8h51.2v-51.2h-51.2v51.2zM281.6 256v-51.2h-51.2v51.2h51.2zM128 332.8h51.2v-51.2h-51.2v51.2zM204.8 256v-51.2h-51.2v51.2h51.2zM51.2 332.8h51.2v-51.2h-51.2v51.2zM128 256v-51.2h-51.2v51.2h51.2zM102.4 128h-51.2v51.2h51.2v-51.2zM384 128h-256v51.2h256v-51.2zM460.8 128h-51.2v51.2h51.2v-51.2zM384 204.8v51.2h51.2v-51.2h-51.2zM460.8 281.6h-102.4v51.2h102.4v-51.2z" />
<glyph unicode="&#xe69f;" glyph-name="language" d="M505.677 207.129c-15.974 43.699-60.57 69.786-119.322 69.786-2.304 0-4.505-0.051-6.707-0.154l-0.409 52.813c0 0 87.296 15.053 90.24 15.539s3.405 3.047 2.791 5.913c-0.589 2.841-4.275 22.605-4.813 24.986-0.691 3.354-2.611 3.251-5.299 2.791-2.663-0.461-83.2-11.801-83.2-11.801s-0.307 49.997-0.333 53.197c-0.026 3.2-1.767 4.045-4.966 3.993s-23.552-0.358-26.24-0.41c-2.688-0.051-4.199-1.254-4.147-3.789 0.051-2.56 0.845-59.059 0.845-59.059s-78.361-13.491-80.486-13.901c-2.151-0.358-4.352-1.357-3.865-3.661s4.864-28.006 5.325-30.003c0.461-2.048 1.843-3.303 4.813-2.739 2.944 0.487 74.854 12.902 74.854 12.902l0.896-51.661c-27.571-7.194-46.106-21.095-57.753-33.357-19.661-20.659-30.899-48.307-30.899-75.853 0-40.601 24.858-64.743 59.597-68.992 80.947-9.907 131.047 78.336 147.687 120.704 28.083-38.553 6.553-111.462-53.606-153.088-1.101-0.743-2.509-3.303-0.845-5.299s13.849-16.947 15.846-19.353c2.048-2.457 5.274-1.51 6.553-0.589 64.256 44.288 93.721 115.584 73.447 171.085zM316.595 125.517c-24.73 3.098-24.166 23.399-24.166 37.197 0 19.789 8.371 40.448 22.425 55.194 8.576 9.063 19.2 15.898 31.462 20.455l2.099-109.491c-9.856-3.353-20.454-4.736-31.821-3.353zM378.726 139.673l1.178 105.191c2.151 0.102 4.25 0.256 6.451 0.256 19.789 0 38.246-3.712 48.256-9.242 10.010-5.555-26.189-69.453-55.885-96.205zM149.607 335.975c-0.768 2.406-2.637 3.712-5.018 3.712h-49.92c-2.381 0-4.224-1.306-4.966-3.687-10.547-33.255-89.088-281.344-89.498-282.649-0.435-1.305-0.281-1.945 1.587-1.945h44.365c1.92 0 2.535 0.589 2.919 1.843 0.384 1.305 25.805 84.941 25.805 84.941h89.498c0 0 25.395-83.661 25.805-84.941 0.41-1.255 0.999-1.843 2.893-1.843h44.391c1.843 0 1.997 0.64 1.587 1.945-0.358 1.28-78.925 249.37-89.446 282.624zM82.585 174.233l37.043 134.4 37.043-134.4h-74.087z" />
<glyph unicode="&#xe6a0;" glyph-name="message" d="M460.8 332.8v-179.2c0-28.16-23.040-51.2-51.2-51.2h-102.4v-76.8l-102.4 76.8h-102.4c-28.186 0-51.2 23.040-51.2 51.2v179.2c0 28.16 23.014 51.2 51.2 51.2h307.2c28.16 0 51.2-23.040 51.2-51.2z" />
<glyph unicode="&#xe6a1;" glyph-name="chat" d="M148.48 174.080v158.72h-97.28c-28.16 0-51.2-23.040-51.2-51.2v-153.6c0-28.16 23.040-51.2 51.2-51.2h25.6v-76.8l76.8 76.8h128c28.16 0 51.2 23.040 51.2 51.2v46.592c-1.639-0.358-3.379-0.538-5.12-0.538l-179.2 0.026zM460.8 460.8h-230.4c-28.16 0-51.2-23.040-51.2-51.2v-204.8h179.2l76.8-76.8v76.8h25.6c28.16 0 51.2 23.015 51.2 51.2v153.6c0 28.16-23.040 51.2-51.2 51.2z" />
<glyph unicode="&#xe6a2;" glyph-name="megaphone" d="M440.909 306.432c-40.55 94.361-105.779 166.144-138.778 152.755-56.038-22.81 33.382-132.198-241.843-244.045-23.782-9.702-29.799-48.333-19.84-71.475 9.933-23.091 42.445-46.106 66.227-36.454 4.121 1.69 19.225 6.553 19.225 6.553 16.973-22.81 34.739-9.293 41.062-23.757 7.577-17.408 24.038-55.245 29.645-68.096s18.304-24.755 27.52-21.248c9.19 3.507 40.499 15.411 52.48 19.942 11.981 4.557 14.822 15.257 11.161 23.654-3.942 9.088-20.122 11.75-24.755 22.349-4.608 10.547-19.686 44.493-24.013 55.193-5.888 14.541 6.631 26.394 24.832 28.262 125.286 13.107 148.71-64.307 191.36-46.95 32.947 13.44 26.24 109.031-14.285 203.315zM426.803 153.446c-7.347-2.944-56.653 35.891-88.141 109.235-31.514 73.293-27.546 140.288-20.224 143.283 7.322 2.944 55.424-43.955 86.912-117.248 31.514-73.293 28.774-132.275 21.453-135.271z" />
<glyph unicode="&#xe6a3;" glyph-name="mic" d="M419.815 290.739v-70.579c0-57.241-42.061-118.502-138.214-126.951v-67.61h66.56c5.632 0 10.24-4.608 10.24-10.24v-30.72c0-5.658-4.634-10.24-10.24-10.24h-184.32c-5.632 0-10.24 4.608-10.24 10.24v30.72c0 5.632 4.608 10.24 10.214 10.24h66.585v67.61c-96.205 8.448-138.24 69.709-138.24 126.951v70.579c0 5.657 4.608 10.24 10.24 10.24h15.36c5.632 0 10.24-4.608 10.24-10.24v-70.579c0-34.202 26.957-92.16 128-92.16 101.017 0 128 57.959 128 92.16v70.579c0 5.657 4.608 10.24 10.214 10.24h15.385c5.632 0.025 10.214-4.583 10.214-10.24zM256 179.2c60.058 0 76.8 24.704 76.8 40.96v80.845h-153.6v-80.845c0-16.256 16.691-40.96 76.8-40.96zM332.8 445.44c0 16.307-16.743 40.96-76.8 40.96-60.109 0-76.8-24.653-76.8-40.96v-108.595h153.6v108.595z" />
<glyph unicode="&#xe6a4;" glyph-name="phone" d="M287.462 198.938c-40.525-40.499-87.475-79.257-106.035-60.697-26.547 26.547-42.931 49.69-101.504 2.611-58.547-47.053-13.568-78.438 12.16-104.141 29.696-29.696 140.391-1.587 249.805 107.801 109.389 109.415 137.421 220.109 107.699 249.805-25.728 25.753-56.96 70.707-104.013 12.16-47.079-58.547-23.962-74.931 2.637-101.504 18.483-18.56-20.25-65.51-60.749-106.035z" />
<glyph unicode="&#xe6a5;" glyph-name="tv" d="M460.8 460.8h-409.6c-28.186 0-51.2-23.040-51.2-51.2v-281.6c0-28.16 22.579-55.757 50.202-61.261l111.923-22.4c0 0-96.333-44.339-34.125-44.339h256c62.208 0-34.151 44.339-34.151 44.339l111.949 22.4c27.597 5.504 50.202 33.101 50.202 61.261v281.6c0 28.16-23.040 51.2-51.2 51.2zM460.8 128h-409.6v281.6h409.6v-281.6z" />
<glyph unicode="&#xe6a6;" glyph-name="mobile" d="M358.502 486.4h-205.005c-28.211 0-51.097-22.886-51.097-51.097v-409.779c0-28.237 22.886-51.123 51.097-51.123h204.979c28.237 0 51.123 22.887 51.123 51.098v409.805c0 28.211-22.887 51.098-51.098 51.098zM256 0c-17.664 0-32 11.443-32 25.6s14.336 25.6 32 25.6 32-11.443 32-25.6-14.336-25.6-32-25.6zM358.4 76.8h-204.8v358.4h204.8v-358.4z" />
<glyph unicode="&#xe6a7;" glyph-name="print" d="M38.425 332.8h435.2c14.592 0 12.211 15.565 4.941 18.099-7.296 2.534-88.141 33.101-102.247 33.101h-17.92v76.8h-204.8v-76.8h-17.894c-14.080 0-94.951-30.567-102.221-33.101s-9.651-18.099 4.941-18.099zM486.4 307.2h-460.8c-14.080 0-25.6-11.52-25.6-25.6v-128c0-14.106 11.52-25.6 25.6-25.6h58.445l-22.579-128h389.094l-22.605 128h58.445c14.106 0 25.6 11.495 25.6 25.6v128c0 14.080-11.495 25.6-25.6 25.6zM117.837 51.2l30.669 179.277h215.014l30.695-179.277h-276.377z" />
<glyph unicode="&#xe6a8;" glyph-name="mouse" d="M394.291 117.709l-67.251 192.896c-18.483 53.069-75.93 82.432-130.355 67.917l-50.585 98.176c-4.583 8.857-15.309 12.262-24.013 7.577-8.678-4.685-12.007-15.719-7.398-24.601l49.383-95.795c-39.347-26.112-59.802-75.623-46.822-122.215l54.758-197.018c15.411-55.347 78.848-83.558 142.618-64.051 62.95 22.093 98.56 82.867 79.667 137.113zM227.815 257.971c-18.688-6.144-38.681 4.403-44.672 23.577-6.016 19.149 4.301 39.629 22.963 45.773 18.688 6.144 38.707-4.403 44.697-23.552s-4.301-39.654-22.989-45.798z" />
<glyph unicode="&#xe6a9;" glyph-name="camera" d="M256 281.6c-42.419 0-76.8-34.407-76.8-76.8s34.381-76.8 76.8-76.8c42.394 0 76.8 34.406 76.8 76.8s-34.406 76.8-76.8 76.8zM460.8 358.4h-61.44c-8.448 0-17.562 6.553-20.199 14.592l-15.897 47.642c-2.688 8.013-11.75 14.567-20.224 14.567h-174.080c-8.448 0-17.561-6.553-20.198-14.541l-15.923-47.667c-2.662-8.038-11.751-14.592-20.198-14.592h-61.44c-28.16 0-51.2-23.040-51.2-51.2v-230.4c0-28.16 23.040-51.2 51.2-51.2h409.6c28.16 0 51.2 23.040 51.2 51.2v230.4c0 28.16-23.040 51.2-51.2 51.2zM256 76.8c-70.707 0-128 57.293-128 128s57.293 128 128 128c70.682 0 128-57.293 128-128s-57.318-128-128-128zM448 276.48c-9.907 0-17.92 8.038-17.92 17.946 0 9.856 8.013 17.92 17.92 17.92s17.92-8.038 17.92-17.92c0-9.907-8.013-17.946-17.92-17.946z" />
<glyph unicode="&#xe6aa;" glyph-name="save" d="M388.429 435.2h-286.029c-28.186 0-51.2-23.040-51.2-51.2v-307.2c0-28.16 23.014-51.2 51.2-51.2h307.2c28.185 0 51.2 23.040 51.2 51.2v278.349l-72.371 80.051zM358.4 281.6c0-14.055-11.52-25.6-25.6-25.6h-153.6c-14.080 0-25.6 11.546-25.6 25.6v128h204.8v-128zM332.8 384h-51.2v-102.4h51.2v102.4z" />
<glyph unicode="&#xe6ab;" glyph-name="book" d="M435.2 334.080v-264.986c0-13.363-11.571-19.738-25.6-29.696-11.264-8.013-25.6 1.92-25.6 15.027 0 0 0 253.568 0 258.918 0 5.402-1.894 10.547-8.038 13.696s-198.093 104.064-198.093 104.064c-3.097 1.152-16.614 9.677-34.637 0.41-17.126-8.807-26.445-18.381-28.826-22.887l209.408-114.739c5.555-2.918 8.986-7.424 8.986-13.209v-276.531c0-5.888-3.635-12.185-9.447-14.976-2.663-1.331-5.606-1.971-8.525-1.971-3.456 0-6.938 0.845-9.882 2.663-5.504 3.353-199.014 122.010-211.789 129.715-6.144 3.687-13.338 11.238-13.491 16.845l-2.867 263.322c0 5.069-0.589 14.003 7.398 26.419 17.843 27.75 80.103 59.315 111.616 42.957l230.375-116.608c5.555-2.867 9.011-8.601 9.011-18.432z" />
<glyph unicode="&#xe6ac;" glyph-name="leaf" d="M487.040 394.573c-111.513-65.433-103.526-199.833-181.657-260.48-58.803-45.645-141.773-22.528-189.747-2.893 0 0-32.512-41.037-55.834-95.744-7.808-18.355-42.087 1.869-36.071 17.408 76.237 196.736 335.616 294.887 335.616 294.887s-183.014 7.757-305.331-152.064c-3.277 36.506-8.704 135.271 86.016 195.84 128.409 82.202 373.043 18.304 347.008 3.046z" />
<glyph unicode="&#xe6ad;" glyph-name="lifebuoy" d="M429.773 404.173c-95.975 95.974-251.571 95.974-347.52 0-96-96-96-251.597-0.051-347.546 96-96 251.597-96 347.597 0 95.949 95.975 95.949 251.571-0.026 347.546zM172.749 147.149c-46.003 46.003-46.003 120.551 0 166.528 45.952 45.977 120.55 45.977 166.554 0 46.003-46.003 45.952-120.551 0-166.528-46.003-46.003-120.55-46.003-166.554 0zM392.883 156.697c24.781 46.055 24.806 101.351 0 147.431l45.645 24.576c32.998-61.209 32.998-135.424 0.051-196.557l-45.696 24.55zM354.279 412.953l-24.601-45.67c-46.055 24.755-101.351 24.755-147.353 0l-24.601 45.645c61.184 32.973 135.347 32.973 196.557 0.026zM73.472 328.704l45.67-24.602c-24.781-46.029-24.781-101.299-0.025-147.353l-45.671-24.601c-32.973 61.159-32.947 135.347 0.025 196.557zM157.671 47.897l24.601 45.645c46.054-24.806 101.376-24.806 147.43 0l24.601-45.696c-61.235-32.947-135.424-32.947-196.633 0.051z" />
<glyph unicode="&#xe6ae;" glyph-name="light-bulb" d="M183.962-4.403c20.198-13.056 43.546-21.888 72.038-21.197 28.442-0.691 51.84 8.141 72.038 21.197l-0.435 55.603h-143.207l-0.435-55.603zM325.043 76.8c0 111.539 118.528 149.709 109.645 260.813-5.581 70.093-53.069 148.736-178.688 148.736s-173.107-78.643-178.714-148.761c-8.883-111.079 109.671-149.248 109.671-260.787h138.087zM128 332.8c5.299 66.509 54.093 102.4 128 102.4 73.882 0 119.142-35.097 124.442-101.606 2.893-36.455-18.048-60.749-46.31-100.506-20.839-29.338-41.037-59.981-52.531-105.088h-51.2c-11.494 45.107-31.693 75.75-52.557 105.114-28.237 39.731-52.761 63.232-49.843 99.686z" />
<glyph unicode="&#xe6af;" glyph-name="light-down" d="M256 312.397c-45.44 0-81.92-36.505-81.92-81.946 0-45.389 36.48-81.895 81.92-81.895 45.414 0 81.894 36.505 81.894 81.895 0 45.44-36.48 81.946-81.894 81.946zM256 177.997c-29.005 0-52.505 23.45-52.505 52.455s23.501 52.506 52.505 52.506c28.979 0 52.48-23.501 52.48-52.506-0.026-29.005-23.526-52.455-52.48-52.455zM384 358.4c-7.987 7.987-22.605 6.349-32.589-3.635-9.984-10.010-11.597-24.55-3.61-32.563s22.579-6.4 32.589 3.61c9.984 9.984 11.597 24.601 3.61 32.589zM131.635 134.938c-10.010-9.984-11.623-24.55-3.635-32.538s22.579-6.4 32.589 3.61c10.010 10.010 11.623 24.601 3.635 32.589s-22.605 6.349-32.589-3.661zM128 358.4c-7.987-7.987-6.374-22.605 3.609-32.589 10.010-10.010 24.602-11.597 32.589-3.61s6.375 22.605-3.635 32.589c-9.958 9.959-24.576 11.597-32.563 3.609zM351.411 106.061c9.984-10.010 24.576-11.648 32.589-3.661s6.375 22.605-3.635 32.615c-10.010 10.010-24.576 11.597-32.589 3.61s-6.349-22.579 3.635-32.563zM256 358.451c11.289 0 20.48 11.443 20.48 25.6-0.026 14.157-9.19 25.549-20.48 25.549-11.315 0-20.506-11.392-20.506-25.549s9.165-25.6 20.506-25.6zM256 51.2c11.289 0 20.48 11.443 20.48 25.6s-9.165 25.549-20.454 25.549c-11.315 0-20.506-11.392-20.506-25.549-0.025-14.157 9.139-25.6 20.48-25.6zM128 230.4c0 11.29-11.52 20.48-25.677 20.48s-25.523-9.191-25.523-20.48c0-11.315 11.367-20.48 25.523-20.48s25.677 9.165 25.677 20.48zM435.2 230.4c0 11.29-11.469 20.48-25.625 20.48s-25.575-9.191-25.575-20.48c0-11.315 11.418-20.48 25.575-20.48s25.625 9.165 25.625 20.48z" />
<glyph unicode="&#xe6b0;" glyph-name="light-up" d="M486.4 250.906c-4.659 0-20.454 0-25.088 0-14.157 0-25.6-9.191-25.6-20.506 0-11.29 11.443-20.455 25.6-20.455 4.659 0 20.454 0 25.088 0 14.131 0 25.6 9.139 25.6 20.455 0 11.29-11.495 20.506-25.6 20.506zM256 371.2c-78.106 0-140.8-62.695-140.8-140.8s62.695-140.8 140.8-140.8c78.080 0 140.8 62.695 140.8 140.8s-62.745 140.8-140.8 140.8zM256 128c-56.601 0-102.4 45.849-102.4 102.4 0 56.602 45.798 102.4 102.4 102.4 56.55 0 102.4-45.798 102.4-102.4 0-56.55-45.849-102.4-102.4-102.4zM76.8 230.4c0 11.29-11.495 20.506-25.6 20.506-4.736 0-20.89 0-25.6 0-14.157 0-25.6-9.191-25.6-20.506 0-11.29 11.443-20.455 25.6-20.455 4.71 0 20.864 0 25.6 0 14.105 0 25.6 9.165 25.6 20.455zM256 409.6c11.289 0 20.454 11.443 20.454 25.6 0 4.711 0 20.889 0 25.6 0 14.157-9.165 25.6-20.454 25.6-11.315 0-20.506-11.443-20.506-25.6 0-4.711 0-20.889 0-25.6 0-14.157 9.191-25.6 20.506-25.6zM256 51.2c-11.315 0-20.506-11.443-20.506-25.6 0-4.711 0-20.889 0-25.6 0-14.157 9.191-25.6 20.506-25.6 11.289 0 20.454 11.443 20.454 25.6 0 4.711 0 20.889 0 25.6 0 14.157-9.165 25.6-20.454 25.6zM444.544 389.99c10.010 10.010 11.623 24.601 3.635 32.589s-22.605 6.349-32.563-3.661c-2.765-2.739-15.181-15.155-17.92-17.894-10.010-10.010-11.623-24.601-3.635-32.589s22.605-6.349 32.589 3.661c2.739 2.765 15.13 15.155 17.894 17.894zM85.35 88.755c-2.765-2.791-15.181-15.207-17.92-17.945-10.010-10.010-11.623-24.55-3.635-32.538s22.605-6.4 32.563 3.61c2.765 2.739 15.181 15.155 17.92 17.894 10.010 10.010 11.623 24.601 3.635 32.615s-22.605 6.323-32.563-3.635zM96.384 418.944c-9.984 10.010-24.602 11.648-32.589 3.661s-6.349-22.605 3.609-32.615c2.765-2.739 15.181-15.155 17.92-17.894 10.010-10.010 24.576-11.648 32.563-3.661s6.374 22.605-3.609 32.589c-2.739 2.765-15.129 15.181-17.895 17.92zM397.671 59.75c2.765-2.739 15.181-15.155 17.92-17.894 10.010-10.010 24.576-11.597 32.563-3.661 7.987 7.987 6.375 22.605-3.635 32.589-2.739 2.739-15.155 15.155-17.894 17.894-10.010 10.010-24.601 11.648-32.615 3.661s-6.349-22.579 3.661-32.589z" />
</font>
</defs>
</svg>
